<svg xmlns="http://www.w3.org/2000/svg" viewBox="0 0 902.58 226.88"><defs><style>.cls-1{fill:#711037;}.cls-2{fill:#f4982f;}</style></defs><title>Asset 1</title><g id="Layer_2" data-name="Layer 2"><g id="Layer_1-2" data-name="Layer 1"><path class="cls-1" d="M284.34,198.6h-.79c-2.68,0-4.07-1.3-4.07-3.91v-9.45h17.17v9.28c0,2.69-1.3,4.08-3.9,4.08h-.7v2.08h16.74V198.6h-.87a4.23,4.23,0,0,1-3-.87,4.09,4.09,0,0,1-1-3V174c0-2.52,1.31-3.82,3.91-3.82h1v-2.08H292.14v2.08h.43a4.55,4.55,0,0,1,3.21.87,4.32,4.32,0,0,1,1,3.12v8.07H279.57V174c0-2.52,1.38-3.82,4.07-3.82h.7v-2.08H267.51v2.08h.87c2.6,0,3.9,1.3,3.9,3.82v20.81c0,2.52-1.3,3.82-3.82,3.82h-.86v2.08h16.82V198.6Z"/><path class="cls-1" d="M318.42,189.14a12.9,12.9,0,0,0-4.95,2.43,5.68,5.68,0,0,0-1.64,4.16,5.1,5.1,0,0,0,1.73,4.08,6.4,6.4,0,0,0,4.34,1.39,7,7,0,0,0,3.55-1,14.53,14.53,0,0,0,2.86-2.34c.44,2.17,1.65,3.21,3.73,3.21a6.92,6.92,0,0,0,3.3-1A11.3,11.3,0,0,0,334,198l-.78-1.3a2.36,2.36,0,0,1-1.39.61c-.78,0-1.13-.79-1.13-2.43V185a5,5,0,0,0-1.47-3.64,9.68,9.68,0,0,0-7.11-2.69,13.66,13.66,0,0,0-4.6.87,10.41,10.41,0,0,0-4.08,2.25,4.35,4.35,0,0,0-1.3,3.21,7.79,7.79,0,0,0,.26,1.82l5.9-2a4.11,4.11,0,0,1-.09-1c0-2,1-3,2.78-3a3,3,0,0,1,2.34,1,3.63,3.63,0,0,1,.95,2.52v1.9A16.88,16.88,0,0,1,318.42,189.14Zm5.89,6.94c-1.47,1.48-2.68,2.17-3.47,2.17a2.19,2.19,0,0,1-2-1.22,5.22,5.22,0,0,1-.61-2.42,3.86,3.86,0,0,1,1.82-3.65c.09-.08.78-.43,2.17-1.12a11.27,11.27,0,0,0,2.08-1.3Z"/><path class="cls-1" d="M339,185.33v8.76a9.44,9.44,0,0,0,.61,3.55,5.06,5.06,0,0,0,5,3.64q2.73,0,9.36-4.16v4.16h1l8.5-2.08v-1.64a5.15,5.15,0,0,1-1.56.34,1.26,1.26,0,0,1-1.39-1.13,11.42,11.42,0,0,1-.08-2v-16h-1.13l-9.63,1.9v1.22l2.43.69a2.47,2.47,0,0,1,1.56,1,5.08,5.08,0,0,1,.26,2V195c-2.25,1.39-4,2.08-5.2,2.08-2.26,0-3.38-1.73-3.38-5.2V178.56h-1l-7.55,1.91v1.22l1.13.52A3.89,3.89,0,0,1,339,185.33Z"/><path class="cls-1" d="M373.92,172.75a12.1,12.1,0,0,1-3,4.69,15.7,15.7,0,0,1-4.59,3.38v1.39h2.77v12.57c0,4.34,2,6.5,5.9,6.5a8,8,0,0,0,4.42-1.38,9.23,9.23,0,0,0,3.21-3.39l-.78-1.47c-1.39,1.73-2.77,2.6-3.9,2.6-1.56,0-2.43-.95-2.43-2.77V182.21h6.07l.78-2.87h-6.85v-6.5h-1.56Z"/><path class="cls-1" d="M408.09,199.29a21.12,21.12,0,0,0,9.36,2.08,43.52,43.52,0,0,0,5-.43,25.7,25.7,0,0,1,4-.44,10.31,10.31,0,0,1,3.12.35,37.46,37.46,0,0,0,3-9.54h-2.08a13.09,13.09,0,0,1-4.33,5.46,11.06,11.06,0,0,1-6.6,2.09,12.07,12.07,0,0,1-6.67-2,14.33,14.33,0,0,1-4.95-5.64,16.2,16.2,0,0,1-1.64-7.37,14.57,14.57,0,0,1,3.55-10.06,11.69,11.69,0,0,1,9.11-3.9,11,11,0,0,1,4.51,1,11.13,11.13,0,0,1,5.89,7.19h2.09l-.52-9.1h-1.31a1.24,1.24,0,0,1-1,.52c-.08,0-1.3-.44-3.73-1.22a22.12,22.12,0,0,0-20.46,4.08,15.3,15.3,0,0,0-5.81,12.14,15.87,15.87,0,0,0,2.51,8.59A17,17,0,0,0,408.09,199.29Z"/><path class="cls-1" d="M462.2,189.58a9.75,9.75,0,0,0-3.47-7.81,13.2,13.2,0,0,0-8.84-3,15.44,15.44,0,0,0-6.68,1.47c-4.25,2.17-6.42,5.55-6.42,10.06a10.43,10.43,0,0,0,1.56,5.64c2.26,3.55,5.81,5.29,10.76,5.29a14,14,0,0,0,6.67-1.56A10.55,10.55,0,0,0,462.2,189.58Zm-11.62,9.36c-2.34,0-4.16-1.47-5.38-4.33a18.75,18.75,0,0,1-1.47-7.37c0-4.17,1.65-6.25,4.86-6.25,2,0,3.64,1,4.85,3.21a16.61,16.61,0,0,1,1.91,8.33C455.26,196.77,453.7,198.94,450.58,198.94Z"/><path class="cls-1" d="M503.57,178.74a10.22,10.22,0,0,0-3.56.78,36.3,36.3,0,0,0-8.15,4.68q-.64-5.46-5.46-5.46c-2.43,0-6.16,1.82-11.28,5.46v-6.07h-.95l-8.85,3v1.31l1.13.43c1.48.52,2.26,1.3,2.26,2.25v10.24a5.32,5.32,0,0,1-.52,2.69,2.81,2.81,0,0,1-2.43.95h-.35v1.65h13.18V199h-.43q-3.12,0-3.12-3.38V186c3.12-2.17,5.55-3.29,7.37-3.29,2.08,0,3.12,1.73,3.12,5.11v7.46A5,5,0,0,1,485,198a2.76,2.76,0,0,1-2.43.95v1.65H494.9v-1.65c-2,0-2.95-1.12-2.95-3.47V186c3.21-2.17,5.63-3.29,7.28-3.29,2.17,0,3.21,1.9,3.21,5.81v4.59a13,13,0,0,1-.35,3.73,2.75,2.75,0,0,1-2.6,2.17v1.65H512V199a3.28,3.28,0,0,1-2.34-.69,3.45,3.45,0,0,1-.61-2.43v-8.15a21.76,21.76,0,0,0-.52-5.21A4.83,4.83,0,0,0,503.57,178.74Z"/><path class="cls-1" d="M552.05,178.74a10.22,10.22,0,0,0-3.56.78,36.08,36.08,0,0,0-8.15,4.68q-.66-5.46-5.47-5.46c-2.42,0-6.15,1.82-11.27,5.46v-6.07h-1l-8.85,3v1.31l1.13.43c1.47.52,2.25,1.3,2.25,2.25v10.24a5.22,5.22,0,0,1-.52,2.69,2.78,2.78,0,0,1-2.42.95h-.35v1.65h13.18V199h-.35q-3.12,0-3.12-3.38V186c3.12-2.17,5.55-3.29,7.37-3.29,2.08,0,3.12,1.73,3.12,5.11v7.46a5,5,0,0,1-.52,2.69,2.75,2.75,0,0,1-2.42.95v1.65h12.31v-1.65c-2,0-3-1.12-3-3.47V186c3.21-2.17,5.64-3.29,7.29-3.29,2.16,0,3.21,1.9,3.21,5.81v4.59a13,13,0,0,1-.35,3.73,2.76,2.76,0,0,1-2.6,2.17v1.65h12.31V199a3.28,3.28,0,0,1-2.34-.69,3.45,3.45,0,0,1-.61-2.43v-8.15a21.76,21.76,0,0,0-.52-5.21A4.67,4.67,0,0,0,552.05,178.74Z"/><path class="cls-1" d="M565.14,198c-.43.69-1.21.95-2.43.95h-.52v1.65h13.1v-1.65c-2.17,0-3.21-1.12-3.21-3.29V178.13h-1l-8.93,3v1.3l1.74.61a3.18,3.18,0,0,1,1.38.78,2.16,2.16,0,0,1,.35,1.47V195.3A5,5,0,0,1,565.14,198Z"/><path class="cls-1" d="M568.7,173.36a4.6,4.6,0,0,0,2.86-1,3.27,3.27,0,0,0,1.21-2.61,3,3,0,0,0-1.3-2.6,4.58,4.58,0,0,0-2.86-.95,4.5,4.5,0,0,0-2.86,1,3.28,3.28,0,0,0-1.39,2.6,3,3,0,0,0,1.3,2.6A5.38,5.38,0,0,0,568.7,173.36Z"/><path class="cls-1" d="M578.84,185.33a5.66,5.66,0,0,0,1.65,4,17.89,17.89,0,0,0,3.56,2.69,32.59,32.59,0,0,0,2.86,1.82c1.21.95,1.82,1.82,1.82,2.68a2.18,2.18,0,0,1-.78,1.74,2.88,2.88,0,0,1-1.91.69,5.22,5.22,0,0,1-3.47-1.3,6.49,6.49,0,0,1-2-3.12h-1.74l.61,6.68h1.47c.44-.44.78-.7,1.05-.7s.43.09.95.18a19.29,19.29,0,0,0,4.51.52,7.13,7.13,0,0,0,3.55-.87,6,6,0,0,0,3.3-5.72,6.15,6.15,0,0,0-1.65-4.34,17.18,17.18,0,0,0-3.81-2.86l-3-1.74a3.42,3.42,0,0,1-1.73-2.68c0-1.3.78-2,2.34-2,2.34,0,3.9,1.48,4.85,4.42H593l-.09-5.63a17.12,17.12,0,0,0-5.81-1.13,9.65,9.65,0,0,0-5.64,1.56A6,6,0,0,0,578.84,185.33Z"/><path class="cls-1" d="M605.64,198.94a5.22,5.22,0,0,1-3.47-1.3,6.49,6.49,0,0,1-2-3.12h-1.74l.61,6.68h1.47c.44-.44.78-.7,1-.7s.44.09,1,.18a19.29,19.29,0,0,0,4.51.52,7.13,7.13,0,0,0,3.55-.87,6,6,0,0,0,3.3-5.72,6.15,6.15,0,0,0-1.65-4.34,17.18,17.18,0,0,0-3.81-2.86l-3-1.74a3.42,3.42,0,0,1-1.73-2.68c0-1.3.78-2,2.34-2,2.34,0,3.9,1.48,4.85,4.42h1.74l-.09-5.63a17.12,17.12,0,0,0-5.81-1.13,9.65,9.65,0,0,0-5.64,1.56,5.83,5.83,0,0,0-2.6,5.12,5.66,5.66,0,0,0,1.65,4,17.89,17.89,0,0,0,3.56,2.69,32.59,32.59,0,0,0,2.86,1.82c1.21.95,1.82,1.82,1.82,2.68a2.18,2.18,0,0,1-.78,1.74A3.26,3.26,0,0,1,605.64,198.94Z"/><path class="cls-1" d="M637.81,197.38c-.78,0-1.12-.78-1.12-2.43v-9.88a4.93,4.93,0,0,0-1.48-3.64,9.64,9.64,0,0,0-7.11-2.69,13.92,13.92,0,0,0-4.6.86,10.49,10.49,0,0,0-4.07,2.26,4.31,4.31,0,0,0-1.3,3.21,7.35,7.35,0,0,0,.26,1.82l5.9-2a4,4,0,0,1-.09-1c0-2,.95-3,2.77-3a3,3,0,0,1,2.35,1,3.63,3.63,0,0,1,.95,2.51v1.91a17.22,17.22,0,0,1-5.81,2.86,12.76,12.76,0,0,0-4.94,2.43,5.65,5.65,0,0,0-1.65,4.16,5.1,5.1,0,0,0,1.73,4.08,6.4,6.4,0,0,0,4.34,1.39,7,7,0,0,0,3.55-1,14.8,14.8,0,0,0,2.87-2.34c.43,2.17,1.64,3.21,3.72,3.21a6.33,6.33,0,0,0,3.21-1A11.11,11.11,0,0,0,640,198l-.78-1.3A2.58,2.58,0,0,1,637.81,197.38Zm-7.54-1.3c-1.48,1.48-2.69,2.17-3.47,2.17a2.18,2.18,0,0,1-2-1.22,5.22,5.22,0,0,1-.61-2.42A3.86,3.86,0,0,1,626,191c.09-.08.78-.43,2.17-1.12a11.27,11.27,0,0,0,2.08-1.3Z"/><path class="cls-1" d="M642.15,182.73l1.39.52a2.92,2.92,0,0,1,1.65,1.3,6,6,0,0,1,.26,2.17v8.49a5.3,5.3,0,0,1-.52,2.69c-.44.7-1.22,1-2.43,1h-.35v1.64h14.57v-1.64h-1.39a2.9,2.9,0,0,1-3.47-3.47v-8.5q1.7-2.34,3.12-2.34a18,18,0,0,1,4.25,1.3,18.38,18.38,0,0,0,2.52-5.55l-4.16-1.48a3.46,3.46,0,0,0-1-.17,2.82,2.82,0,0,0-1.57.52,7.93,7.93,0,0,0-1.64,2.25c-.26.44-.7,1.22-1.39,2.52l-.09-5.9h-1.12l-8.59,3.21Z"/><path class="cls-1" d="M675.54,198.94c-2.17,0-3.21-1.12-3.21-3.29V178.13h-1l-8.94,3v1.3l1.74.61a3.3,3.3,0,0,1,1.39.78,2.17,2.17,0,0,1,.34,1.47V195.3a5.22,5.22,0,0,1-.52,2.69c-.43.69-1.21.95-2.43.95h-.52v1.65h13.1v-1.65Z"/><path class="cls-1" d="M669,166.25a4.48,4.48,0,0,0-2.86,1,3.28,3.28,0,0,0-1.39,2.6,3,3,0,0,0,1.3,2.6,4.74,4.74,0,0,0,5.72,0,3.25,3.25,0,0,0,1.22-2.6,3,3,0,0,0-1.3-2.6A3.21,3.21,0,0,0,669,166.25Z"/><path class="cls-1" d="M701,198l-.78-1.3a2.36,2.36,0,0,1-1.38.61c-.78,0-1.13-.79-1.13-2.43V185a4.94,4.94,0,0,0-1.48-3.64,9.67,9.67,0,0,0-7.11-2.69,13.65,13.65,0,0,0-4.59.87,10.41,10.41,0,0,0-4.08,2.25,4.31,4.31,0,0,0-1.3,3.21,7.79,7.79,0,0,0,.26,1.82l5.9-2a4.11,4.11,0,0,1-.09-1c0-2,1-3,2.78-3a3,3,0,0,1,2.34,1,3.67,3.67,0,0,1,1,2.52v1.9a17.32,17.32,0,0,1-5.81,2.87,13,13,0,0,0-4.94,2.42,5.71,5.71,0,0,0-1.65,4.17,5.12,5.12,0,0,0,1.73,4.07,6.35,6.35,0,0,0,4.34,1.39,7.12,7.12,0,0,0,3.56-1,16,16,0,0,0,2.86-2.34c.43,2.16,1.65,3.2,3.73,3.2a6.29,6.29,0,0,0,3.21-1A6.72,6.72,0,0,0,701,198Zm-9.71-1.91c-1.47,1.48-2.69,2.17-3.47,2.17a2.19,2.19,0,0,1-2-1.22,4.32,4.32,0,0,1-.61-2.42,3.86,3.86,0,0,1,1.82-3.65c.09-.08.78-.43,2.17-1.12a11.27,11.27,0,0,0,2.08-1.3Z"/><path class="cls-1" d="M703.29,180.82v1.39h2.77v12.57c0,4.34,2,6.5,5.9,6.5a8,8,0,0,0,4.42-1.38,9.23,9.23,0,0,0,3.21-3.39l-.78-1.47c-1.39,1.73-2.77,2.6-3.9,2.6-1.56,0-2.43-.95-2.43-2.77V182.21h6.07l.78-2.87h-6.85v-6.5h-1.56a12,12,0,0,1-3,4.68A18.58,18.58,0,0,1,703.29,180.82Z"/><path class="cls-1" d="M735.29,186.89l5.9-2a4,4,0,0,1-.09-1c0-2,.95-3,2.78-3a3,3,0,0,1,2.34,1,3.63,3.63,0,0,1,.95,2.51v1.91a17.13,17.13,0,0,1-5.81,2.86,12.76,12.76,0,0,0-4.94,2.43,5.69,5.69,0,0,0-1.65,4.16,5.13,5.13,0,0,0,1.73,4.08,6.4,6.4,0,0,0,4.34,1.39,7,7,0,0,0,3.56-1,15.14,15.14,0,0,0,2.86-2.34c.43,2.17,1.64,3.21,3.73,3.21a6.32,6.32,0,0,0,3.2-1,10.92,10.92,0,0,0,2.69-2.08l-.78-1.3a2.36,2.36,0,0,1-1.38.61c-.79,0-1.13-.79-1.13-2.43V185a4.94,4.94,0,0,0-1.48-3.64,9.68,9.68,0,0,0-7.11-2.69,13.6,13.6,0,0,0-4.59.87,10.34,10.34,0,0,0-4.08,2.25A4.31,4.31,0,0,0,735,185,7.94,7.94,0,0,0,735.29,186.89Zm11.88,9.19c-1.47,1.48-2.69,2.17-3.47,2.17a2.18,2.18,0,0,1-2-1.22,5.22,5.22,0,0,1-.61-2.42,3.86,3.86,0,0,1,1.82-3.65c.09-.08.78-.43,2.17-1.12a11.27,11.27,0,0,0,2.08-1.3Z"/><path class="cls-1" d="M776.74,197v4.16h1l8.5-2.08v-1.56a5.15,5.15,0,0,1-1.56.34,1.26,1.26,0,0,1-1.39-1.13,11.42,11.42,0,0,1-.08-2v-16h-1l-9.63,1.9v1.22l2.43.69a2.47,2.47,0,0,1,1.56,1,5.28,5.28,0,0,1,.26,2V195q-3.39,2.09-5.2,2.08-3.39,0-3.39-5.2V178.56h-1l-7.54,1.91v1.22l1.13.52c.69.34,1.12,1.3,1.12,2.94v8.94a9.64,9.64,0,0,0,.61,3.55,5.06,5.06,0,0,0,5,3.64C769.28,201.2,772.41,199.81,776.74,197Z"/><path class="cls-1" d="M801.72,168.07v2.08h1.13a7.74,7.74,0,0,1,2.25.26c.95.35,1.39,1.22,1.39,2.78v22.46c0,1.3-.26,2.08-.87,2.51a4.93,4.93,0,0,1-2.77.52h-.78v2.08h17.86v-2.08h-1.56a5.34,5.34,0,0,1-3.38-.78c-.78-.52-1.13-1.65-1.13-3.21v-7.8a35.29,35.29,0,0,0,6,.52,21.59,21.59,0,0,0,5.47-.69c5.11-1.48,7.72-4.6,7.72-9.2a8.69,8.69,0,0,0-3.47-7.2c-2.52-2-6.16-3-10.93-3q-2.34,0-8.33.26Q804.59,167.94,801.72,168.07Zm12,1.91a18.72,18.72,0,0,1,3.73-.35,7.81,7.81,0,0,1,5.64,2c1.39,1.3,2,3.2,2,5.63a9.55,9.55,0,0,1-.86,4.34c-1.22,2.43-3.47,3.64-6.68,3.64a17.37,17.37,0,0,1-3.82-.35V170Z"/><path class="cls-1" d="M838.06,171.89a9.72,9.72,0,0,1,.08,1.9v21.6a5.22,5.22,0,0,1-.52,2.69c-.43.69-1.21.95-2.43.95h-.52v1.65h13V199q-3.12,0-3.12-3.64V165.73h-.95l-9.11,2.6v1.56l2.25.78A1.59,1.59,0,0,1,838.06,171.89Z"/><path class="cls-1" d="M857.05,189.14a12.9,12.9,0,0,0-4.95,2.43,5.68,5.68,0,0,0-1.64,4.16,5.1,5.1,0,0,0,1.73,4.08,6.4,6.4,0,0,0,4.34,1.39,7,7,0,0,0,3.55-1,14.53,14.53,0,0,0,2.86-2.34c.44,2.17,1.65,3.21,3.73,3.21a6.35,6.35,0,0,0,3.21-1,11.11,11.11,0,0,0,2.69-2.08l-.78-1.3a2.36,2.36,0,0,1-1.39.61c-.78,0-1.12-.79-1.12-2.43V185a5,5,0,0,0-1.48-3.64,9.68,9.68,0,0,0-7.11-2.69,13.7,13.7,0,0,0-4.6.87,10.29,10.29,0,0,0-4.07,2.25,4.31,4.31,0,0,0-1.3,3.21,7.29,7.29,0,0,0,.26,1.82l5.89-2a4.61,4.61,0,0,1-.08-1c0-2,1-3,2.77-3a3,3,0,0,1,2.34,1,3.63,3.63,0,0,1,1,2.52v1.9A16.45,16.45,0,0,1,857.05,189.14Zm5.89,6.94c-1.47,1.48-2.68,2.17-3.46,2.17a2.19,2.19,0,0,1-2-1.22,4.4,4.4,0,0,1-.61-2.42,3.86,3.86,0,0,1,1.82-3.65c.09-.08.79-.43,2.17-1.12a11.27,11.27,0,0,0,2.08-1.3Z"/><path class="cls-1" d="M878,185.15v10.24a5.32,5.32,0,0,1-.52,2.69A2.81,2.81,0,0,1,875,199h-.35v1.65h13.27V199h-.43c-2.08,0-3.13-1.13-3.13-3.38V185c2.17-1.47,4-2.25,5.55-2.25,2.17,0,3.21,1.9,3.21,5.81v4.59a13.11,13.11,0,0,1-.34,3.73,2.76,2.76,0,0,1-2.6,2.17v1.65h12.4V199a3.32,3.32,0,0,1-2.35-.69,3.46,3.46,0,0,1-.6-2.43v-8.15a22.28,22.28,0,0,0-.52-5.21,4.83,4.83,0,0,0-5-3.81c-2.34,0-5.55,1.38-9.62,4.07v-4.68h-1l-8.93,3v1.31l1.13.34C877.17,183.25,878,184,878,185.15Z"/><path class="cls-1" d="M345,76.84h-.87A5.29,5.29,0,0,0,339.28,80l.44,1.85a5.49,5.49,0,0,0,4,1.84c3.25-.54,4.88-1.84,4.88-3.69l-.54-2.17A4.2,4.2,0,0,0,345,76.84Z"/><path class="cls-1" d="M331.26,83.78c3.36-.54,5-1.63,5-3V80a4.3,4.3,0,0,0-4.34-3.14l-1.41.21c-2.28,1-3.36,2-3.36,2.72V81.5c1.3,1.41,2.38,2.17,3.47,2.17h.65Z"/><path class="cls-1" d="M410.54,43.22a2,2,0,0,0,1.19,1.41,4.05,4.05,0,0,0,1.41.54,6.09,6.09,0,0,0,1.3-.11,2,2,0,0,0,1.31-.76,4.29,4.29,0,0,1,1-1,1.89,1.89,0,0,0,.44-1.08v-1.3a8.77,8.77,0,0,0-.22-.87A2.09,2.09,0,0,0,416.4,39a4.72,4.72,0,0,1-.76-.65.92.92,0,0,0-.76-.22h-.76a.94.94,0,0,0-.54.11,10.36,10.36,0,0,0-1.09.21,1.58,1.58,0,0,0-1.19.76,9.34,9.34,0,0,1-.76,1.09,1.7,1.7,0,0,0-.33.87v.75A11.3,11.3,0,0,0,410.54,43.22Z"/><path class="cls-1" d="M438.52,63.28h1.85c.1,0,.1.11.21.11a.38.38,0,0,0,.22.11c.11,0,.22,0,.22.11a1.14,1.14,0,0,0,.43.1h1.41c.11,0,.22-.1.43-.1a3.51,3.51,0,0,0,1-1.41,8.56,8.56,0,0,0,.87-2.93,5.45,5.45,0,0,0,.11-2.17,5.3,5.3,0,0,0-1.2-1.52,3,3,0,0,0-2.49-.87,16.38,16.38,0,0,1-1.95.11,2.48,2.48,0,0,0-.87.22,9.15,9.15,0,0,1-1.19.32c-.55.11-.76.22-.87.22a3.4,3.4,0,0,0-.76.11,20.42,20.42,0,0,1-5-1.85c-2.82-1.3-5.31-2.38-7.48-3.47a10.48,10.48,0,0,0-6.4-1.08A10.07,10.07,0,0,0,412.49,51a8.06,8.06,0,0,0-2.17,3,9,9,0,0,0-.86,2.93v1.95a10.45,10.45,0,0,1-.11,1.85,6.75,6.75,0,0,0,0,1.51c.11.44.21,1,.43,2a7.18,7.18,0,0,1-4,1.52,6,6,0,0,1-2.71-.44c-.33-.22-.55-.87-.76-2a18.19,18.19,0,0,0-.33-2.28,13.61,13.61,0,0,0-.54-1.52,3.12,3.12,0,0,0-.76-1.08,6.84,6.84,0,0,1-1.41-2.17,16.86,16.86,0,0,0-3.9-4.56c-2-1.73-2.93-2.71-2.93-2.92s.11-.33.21-.33a7,7,0,0,0,1.63-1.41,41.69,41.69,0,0,0,3.26-3.69,13.37,13.37,0,0,0,2.06-2.93,11.07,11.07,0,0,1,1.19-2.16,7.74,7.74,0,0,0,.87-1.74v-.33a.1.1,0,0,0-.11-.1c-.11,0,0-.33.22-.76a1.75,1.75,0,0,0,.21-.65.31.31,0,0,1-.21-.11c-.11,0-.11-.22,0-.33v-.43c-.11-.11-.11-.22,0-.22a3.6,3.6,0,0,0,.1-1,2.26,2.26,0,0,0-1.08-1.85c-.76-.54-1.19-.87-1.41-.87h-1.3c-.65,0-1.3.76-1.85,2.39s-.86,2.71-.65,3.25.44.76.76.87h1.09c.43,0,.65.33.65,1s0,1-.11,1-.11,0-.22.11-.11.54-.11,1.41-1.19,2.28-3.68,4.23a28.28,28.28,0,0,1-4,2.93,1.77,1.77,0,0,1-.86-.32,31.85,31.85,0,0,0-3.26-1.41,10.69,10.69,0,0,0-3.58-1.09h-1.41c-.32,0-1.19.22-2.71.54a9.69,9.69,0,0,0-3.25,1.2,9.51,9.51,0,0,1-1.74,1c-.43.22-.76.44-1,.54a15.62,15.62,0,0,1-2.5,1.63c-1.41.87-3.14,2-5.2,3A28.37,28.37,0,0,0,359,56a25.39,25.39,0,0,1-3.9,2.93,5.77,5.77,0,0,0-2.28,3.36,18.54,18.54,0,0,0-.76,2.93c0,.22-.32.44-.87.44s-1.51.11-2.82.11a7.91,7.91,0,0,1-3.57-.87A7.13,7.13,0,0,1,341.45,61a6.82,6.82,0,0,0,.55-2.6c-.11-.65-.55-1-1.41-1h-.66q-1.79,0-5.85,3.26A17.11,17.11,0,0,1,328,65.34c-.1,0-.21,0-.21-.11-.33-.21-.54-.86-.65-2a18.5,18.5,0,0,0-.33-2.28,13.61,13.61,0,0,0-.54-1.52,3.12,3.12,0,0,0-.76-1.08,6.84,6.84,0,0,1-1.41-2.17,16.7,16.7,0,0,0-3.9-4.55c-2-1.74-2.93-2.72-2.93-2.93s.11-.33.21-.33A7.21,7.21,0,0,0,319.11,47a38.9,38.9,0,0,0,3.25-3.69,13.44,13.44,0,0,0,2.07-2.92,15,15,0,0,1,1.19-2.17,7.74,7.74,0,0,0,.87-1.74v-.32a.11.11,0,0,0-.11-.11c-.11,0,0-.33.21-.76a1.64,1.64,0,0,0,.22-.65c-.11,0-.11,0-.22-.11s-.1-.22,0-.33v-.43c-.1-.11-.1-.22,0-.22a3.29,3.29,0,0,0,.11-1,2.28,2.28,0,0,0-1.08-1.85c-.76-.54-1.19-.86-1.41-.86h-1.3c-.65,0-1.3.76-1.85,2.38s-.86,2.71-.65,3.26.44.76.76.86h1.09c.43,0,.65.33.65,1s0,1-.11,1-.11,0-.22.1-.11.55-.11,1.41-1.19,2.28-3.68,4.23a27.31,27.31,0,0,1-4,2.93,1.83,1.83,0,0,1-.87-.32,33.77,33.77,0,0,0-3.25-1.41,10.69,10.69,0,0,0-3.58-1.09h-1.41c-.32,0-1.19.22-2.71.54a9.69,9.69,0,0,0-3.25,1.2,9.51,9.51,0,0,1-1.74,1c-.43.22-.76.44-1,.55a15.94,15.94,0,0,1-2.5,1.62c-1.41.87-3.14,2-5.21,3a28.33,28.33,0,0,0-5.42,3.8,25.18,25.18,0,0,1-3.9,2.92,5.8,5.8,0,0,0-2.28,3.37,18.29,18.29,0,0,0-.76,2.92c0,.22-1.73.44-5.21.44-3.25-.54-4.12.54-2.71,3.36,2.17,2.17,4.12,3.15,5.64,3.15s2.61-.11,3.15-.11a6,6,0,0,1,1.41.21,7.24,7.24,0,0,1,1.3.66,4.29,4.29,0,0,0,2.28.43,23.33,23.33,0,0,0,2.82-.11,4.69,4.69,0,0,0,2.06-.76c.54-.43,2.82-.76,6.72-.87s8.57-.32,14-.65a86.36,86.36,0,0,1,8.9-.32,2.44,2.44,0,0,1,1.41,1,2.35,2.35,0,0,0,1.95.87,17.47,17.47,0,0,0,2.49-.22,16.43,16.43,0,0,1,3.26,0v.22c.21,0,.43-.11.65-.11.87,0,2,.11,3.14.22l1.3-.11v-2c.22-.11.33-.22.55-.33,3.14-2.92,4.88-4.33,5.09-4.33h.11a10.85,10.85,0,0,0,1.74,3c1.73,2.39,4.66,3.58,8.89,3.58h.65l1.2-.11c1.73-.11,2.82-.21,3.36-.21a5.5,5.5,0,0,1,1.41.21,7.89,7.89,0,0,1,1.3.65,4.18,4.18,0,0,0,2.28.44,23.33,23.33,0,0,0,2.82-.11,4.81,4.81,0,0,0,2.06-.76c.54-.43,2.82-.76,6.72-.87s8.57-.32,14-.65a86.36,86.36,0,0,1,8.9-.32,2.4,2.4,0,0,1,1.41,1,2.38,2.38,0,0,0,1.95.87,17.47,17.47,0,0,0,2.49-.22c.76-.21,3.15-.11,7.05.11h.44A22.36,22.36,0,0,0,413.69,70a8.33,8.33,0,0,0,3.14.1,5.69,5.69,0,0,0,3-.76,1.11,1.11,0,0,0,.11-1.41c4.77-1.84,7.8-2.92,9.11-3.47a8.63,8.63,0,0,1,2.38-.76H432a27.8,27.8,0,0,1,6.51-.43C438.41,63.17,438.52,63.17,438.52,63.28Zm-146.63-1a13.71,13.71,0,0,0-2.82,1.31c-1.63.86-2.6,1.3-2.82,1.41h-4.88a4.39,4.39,0,0,1-1.3-.11c-.33-.11-.44-.44-.11-1.09a6.32,6.32,0,0,1,1.84-2.17,31.64,31.64,0,0,1,3.58-2.6,24.2,24.2,0,0,0,3.47-2.28c.87-.54,1.84-1.3,3-2.06s2.49-1.62,3.9-2.49a20.57,20.57,0,0,1,3.15-1.74c.65-.32,1.3-.54,1.84-.76a3.87,3.87,0,0,1,1.41-.32h2.28a5.79,5.79,0,0,1,3,.87c.86.65.43,1.62-1.52,3s-3.36,2.61-4.45,3.26a36,36,0,0,1-3.47,2.06,25.23,25.23,0,0,0-3.8,2.38A7.38,7.38,0,0,1,291.89,62.3Zm28,1.09a18.77,18.77,0,0,1-6.4.76H307.4c-.87,0-1.74.11-2.82.22s-1.85.1-2.5.21-1.52.11-3,.11h-2.82c-.44,0-.65-.11-.65-.22s.1-.32.43-.54,1.19-.76,2.6-1.63,2.39-1.41,2.93-1.84,1.84-1.3,3.8-2.71a31.47,31.47,0,0,0,4.33-3.36c.87-.87,1.52-1.3,1.85-1.3h.87a1.44,1.44,0,0,1,.76.32c.21.22,1,.87,2.06,1.85A34,34,0,0,1,318,58c.76.76,1.08,1.19,1.3,1.19s.43.54,1.08,1.52a7.35,7.35,0,0,1,.87,1.84C321.39,62.52,321,62.85,319.87,63.39Zm47.5-1.09a14.25,14.25,0,0,0-2.82,1.31c-1.62.86-2.6,1.3-2.82,1.41h-4.88a4.42,4.42,0,0,1-1.3-.11c-.32-.11-.43-.44-.11-1.09a7.29,7.29,0,0,1,1.74-2.17,31.64,31.64,0,0,1,3.58-2.6,32.76,32.76,0,0,0,3.47-2.28c.87-.54,1.84-1.3,3-2.06s2.49-1.62,3.9-2.49a20.11,20.11,0,0,1,3.15-1.74c.65-.32,1.3-.54,1.84-.76a3.87,3.87,0,0,1,1.41-.32h2.28a5.73,5.73,0,0,1,3,.87c.87.65.44,1.62-1.51,3s-3.37,2.61-4.45,3.26a37.3,37.3,0,0,1-3.47,2.06,24.74,24.74,0,0,0-3.8,2.38A8.86,8.86,0,0,1,367.37,62.3Zm27.88,1.09a18.77,18.77,0,0,1-6.4.76h-6.07c-.87,0-1.74.11-2.82.22s-1.85.1-2.5.21-1.52.11-3,.11H371.6c-.43,0-.65-.11-.65-.22s.11-.32.44-.54,1.19-.76,2.6-1.63a25,25,0,0,0,2.93-1.84c.54-.43,1.84-1.3,3.79-2.71a31.71,31.71,0,0,0,4.34-3.36c.87-.87,1.52-1.3,1.85-1.3h.86a1.38,1.38,0,0,1,.76.32c.22.22,1,.87,2.06,1.85A32.49,32.49,0,0,1,393.4,58c.76.76,1.09,1.19,1.31,1.19a7.79,7.79,0,0,1,1.08,1.52,7.35,7.35,0,0,1,.87,1.84C396.87,62.52,396.33,62.85,395.25,63.39ZM423.77,60c-2.17.86-3.58,1.52-4.44,1.84s-1.31.54-1.31.54-.65.33-1.73.76a3.59,3.59,0,0,1-1-2.06,13.84,13.84,0,0,1-.43-2.49,2.8,2.8,0,0,1,1-1.95,4.3,4.3,0,0,1,2.5-1.09,10.24,10.24,0,0,1,2.6,0,10.6,10.6,0,0,1,3.15,1.09,9.24,9.24,0,0,1,2.38,1.3c.22.21.33.32.44.32a.38.38,0,0,1,.11.22A25.65,25.65,0,0,1,423.77,60Z"/><path class="cls-1" d="M450.67,48.64l2.06-.43a4.28,4.28,0,0,0,2.39-1.85V45.28l-.44-.76a4.53,4.53,0,0,0-3.79-1.74V43h-.11a4.8,4.8,0,0,0-3.47,2.06L447.2,47a4.23,4.23,0,0,0,3.14,1.85h.33Z"/><path class="cls-1" d="M462.17,48.42c2.6-.76,3.9-2.17,4-4.55v-.11c0-1.63-1-2.5-2.93-2.6a9.54,9.54,0,0,1-3.36.75h-.11c-1,.22-1.74,1.09-2.39,2.5V45C457.5,46.58,459,47.77,462.17,48.42Z"/><path class="cls-1" d="M485.48,72h0c1-.11,2-.11,3-.33a12,12,0,0,0,4.23-1.73,6.54,6.54,0,0,0,2.5-2.71,8,8,0,0,0,.54-3.26,31.39,31.39,0,0,0-.44-4.88c-.21-2.06-.54-6-.86-11.71s-.55-9.44-.76-10.74a16.75,16.75,0,0,0-1-4.34,11.74,11.74,0,0,0-1.63-3.36,4,4,0,0,0-1.73-1.41c-.54-.22-1.41,0-2.6.65a2.9,2.9,0,0,0-1.74,2.71,23.07,23.07,0,0,0,.22,3,3.24,3.24,0,0,0,2,2.28,5.24,5.24,0,0,1,2.39,3.47,38.53,38.53,0,0,1,.65,8.67c0,4.13.1,7,.21,8.68s.22,3.15.33,4.34a5.7,5.7,0,0,1-.44,2.93A2.82,2.82,0,0,1,488,65.45c-1.19.11-2,.11-2.28.11h-.32a8.17,8.17,0,0,1-2.72-.22,9.11,9.11,0,0,1-1.51-1,4.87,4.87,0,0,1-1.31-1.63,6.78,6.78,0,0,1-.54-2c-.11-.65-.21-1.63-.32-2.82s-.65-5.21-1.41-12.15-1.3-10.74-1.63-11.39-.54-1.73-.87-3a6.22,6.22,0,0,0-1.62-2.92,4,4,0,0,0-1.52-1,1.12,1.12,0,0,0-.76.54,10.13,10.13,0,0,0-.65,1.2,3.15,3.15,0,0,0-.65,1.41,6,6,0,0,0-.22,1.08,6.56,6.56,0,0,0,.32,1.52,10.5,10.5,0,0,0,1.09,2.17,46.83,46.83,0,0,1,2.28,6.18,56.31,56.31,0,0,1,2.06,10.09c.32,3.25.54,5.09.65,5.64a5.16,5.16,0,0,1,.11,1.3v1a6.13,6.13,0,0,1-.44,1.74,8.39,8.39,0,0,1-.86,2,11.77,11.77,0,0,1-1.09,1.19,4.1,4.1,0,0,1-1.84.87c-.76.22-1.41.33-2,.44h-1.73A7.22,7.22,0,0,1,461.52,61a7,7,0,0,0,.54-2.6c-.11-.65-.54-1-1.41-1H460q-1.8,0-5.86,3.26c-3,3.25-5.53,4.88-7.7,5h0l-1.63.11c-3.68.1-5.75-.66-6.18-2.39h-6.29c.87,3.25,2.06,5.42,3.58,6.29a11.63,11.63,0,0,0,4.45,1.84c1.41.22,2.82.44,4.33.55h1.85c1.52,0,3.36-.76,5.64-2.28,3.14-2.93,4.88-4.34,5.1-4.34h.1a10.94,10.94,0,0,0,1.74,3q2.6,3.57,8.78,3.58v.1h.65c.55,0,1.2-.1,1.52-.1a5.27,5.27,0,0,0,1.63-.33,4.45,4.45,0,0,0,2-1.08c.65-.55,1.2-1.2,1.85-1.85s1-1.08,1.19-1.3a.69.69,0,0,1,.54-.22,5,5,0,0,1,1.09,1.41c.54.87,1,1.63,1.3,2.28a1.89,1.89,0,0,0,1.84,1Z"/><path class="cls-1" d="M515.09,70.22c.11.44,1,.87,2.61,1.3a12.11,12.11,0,0,0,3,.76H522a1.42,1.42,0,0,0,1.09-.43,4.6,4.6,0,0,1,2.49-.43c1.41,0,2.61-1.2,3.58-3.69S530.82,64,531,64a.56.56,0,0,1,.54.43c.11.22.32.87.76,2A14.7,14.7,0,0,0,534,69.25a5.21,5.21,0,0,0,2.93,2.06,15.94,15.94,0,0,0,5.1.54V72c.11,0,.22-.11.33-.11h1.3v-.33a13.54,13.54,0,0,0,4.12-2c3.14-2.93,4.88-4.34,5.1-4.34h.1a10.94,10.94,0,0,0,1.74,3c1.74,2.39,4.66,3.58,8.89,3.58h1.74a9.56,9.56,0,0,0,3.79-.65,15.44,15.44,0,0,0,2.61-1.52c1.84,2.49,3.69,3.8,5.64,3.8a17.92,17.92,0,0,0,5-.33,5,5,0,0,0,3.25-2.28,14.27,14.27,0,0,0,1.74-3.68,11,11,0,0,0,.54-3.69,20.76,20.76,0,0,0-1.74-5.75c-1.08-2.6-2.28-4-3.58-4.23a6.91,6.91,0,0,0-3.36,0c-1,.22-2.28,1.3-4,3a23.45,23.45,0,0,0-3.69,4.77,8.64,8.64,0,0,1-2.28,2.93,12.8,12.8,0,0,1-4.12,1.41H563.9a8,8,0,0,1-3.58-.87A7.11,7.11,0,0,1,557,60.89a7,7,0,0,0,.54-2.6c-.11-.65-.54-1-1.41-1h-.65c-1.19,0-3.15,1.08-5.86,3.25-3,3.25-5.53,4.88-7.7,5h-.65a15.16,15.16,0,0,1-2.06-.65,5.14,5.14,0,0,1-1.63-.87,15.94,15.94,0,0,1-1.73-3.36,14.42,14.42,0,0,1-1.41-5.21,3.38,3.38,0,0,0-1.3-3c-.87-.55-1.3-1-1.3-1.09s.21-1.19.54-3a13.9,13.9,0,0,0,.43-2.82c-.11,0-.11-.21,0-.76a24.58,24.58,0,0,0,0-4.23c-.11-2.27-.65-3.57-1.95-4a9.1,9.1,0,0,0-2.93-.65c-.76,0-1.3,1-1.73,3s-.66,3.14-.66,3.36a1.3,1.3,0,0,0,.44.87,15.66,15.66,0,0,0,1.52,1.62,4.09,4.09,0,0,1,1.19,3,6.58,6.58,0,0,1-1.63,4,15.3,15.3,0,0,1-5.09,3.91,44.06,44.06,0,0,0-4.34,2.38,15.09,15.09,0,0,1-1.74,1.09c-.54.32-1,1.41-1.3,3.47a40.06,40.06,0,0,0-.54,4.12,4.48,4.48,0,0,0,.54,2C514.77,69.35,515,69.9,515.09,70.22Zm60.31-6.94a9.12,9.12,0,0,1,.75-1.3,3.72,3.72,0,0,1,2.06-1.19,3.63,3.63,0,0,1,2.39-.11,2.12,2.12,0,0,1,1.09.76,7.64,7.64,0,0,1,1,1.62,3.3,3.3,0,0,1,.44,2.17c-.11.65-.55,1.09-1.52,1.41a6.25,6.25,0,0,1-2.82.33,5.75,5.75,0,0,1-2.5-.87,2.89,2.89,0,0,1-1.08-1.41A4.73,4.73,0,0,1,575.4,63.28Zm-53.58.11c.86-.22,2.17-1.19,3.9-3s2.6-2.71,2.71-2.49a.55.55,0,0,1,.22.43,13.24,13.24,0,0,1-.54,1.63A24.15,24.15,0,0,0,527,63c-.32,1.08-1.3,1.62-2.71,1.62h-2.82c-.43,0-.76-.11-.76-.32s-.11-.33-.11-.44S521,63.61,521.82,63.39Z"/><path class="cls-1" d="M523.23,33.46h1.19a2.86,2.86,0,0,0,1.41-.44,7.8,7.8,0,0,0,1.84-1.63c.65-.75,1-1.08,1.09-.86s.32.43.54.76a5.12,5.12,0,0,0,.65.76,1.48,1.48,0,0,0,1.09.32h1.51a4.57,4.57,0,0,0,2.17-.87c.87-.65,1.31-1.08,1.31-1.62v-1.2a4.29,4.29,0,0,0-1-1.84c-.65-.87-1.19-1.3-1.63-1.3h-1.73a2.65,2.65,0,0,0-2,.87,7.24,7.24,0,0,0-1.3,1.84c-.32.65-.54.76-.76.22a2.93,2.93,0,0,0-1-1.31,2.54,2.54,0,0,0-1.52-.43h-1.52a5.62,5.62,0,0,0-1.84.54c-.76.44-1.09.87-1.09,1.52v1.85a2.82,2.82,0,0,0,1,1.84A2.24,2.24,0,0,0,523.23,33.46Z"/><path class="cls-1" d="M546,77.16c-2.27,1-3.36,2-3.36,2.71v1.74c1.3,1.41,2.39,2.17,3.47,2.17h.65c3.36-.54,5-1.63,5-3V80a4.3,4.3,0,0,0-4.34-3.14Z"/><path class="cls-1" d="M560.64,76.84h-.86A5.27,5.27,0,0,0,554.9,80l.43,1.85a5.49,5.49,0,0,0,4,1.84c3.26-.54,4.88-1.84,4.88-3.69l-.54-2.17A4.2,4.2,0,0,0,560.64,76.84Z"/><path class="cls-1" d="M624.74,71.74a9.45,9.45,0,0,0,2.5-1,11.63,11.63,0,0,0,2.93-2.16c1.19.86,2.17,1.51,2.82,2a4.28,4.28,0,0,0,1.84,1,3,3,0,0,0,1.41,0,24.94,24.94,0,0,0,2.28-1.19c1.19-.65,1.84-1.08,2.06-1.19a19.16,19.16,0,0,0,3.69,2,17.45,17.45,0,0,0,4.23.76V72h.86v-.11a18.38,18.38,0,0,0,3.37-.33A11.89,11.89,0,0,0,657,69.79a6.41,6.41,0,0,0,2.5-2.71,8,8,0,0,0,.54-3.26,32.43,32.43,0,0,0-.43-4.88c-.22-2.06-.54-6-.87-11.71s-.54-9.44-.76-10.74a16.35,16.35,0,0,0-1-4.34,12.19,12.19,0,0,0-1.62-3.36,4,4,0,0,0-1.74-1.41c-.54-.22-1.41,0-2.6.65a2.91,2.91,0,0,0-1.74,2.71,23.07,23.07,0,0,0,.22,3,3.24,3.24,0,0,0,1.95,2.28,5.18,5.18,0,0,1,2.39,3.47,38.7,38.7,0,0,1,.65,8.68c0,4.12.11,7,.22,8.67s.21,3.15.32,4.34a5.82,5.82,0,0,1-.43,2.93,2.84,2.84,0,0,1-2.39,1.19c-1.19.11-1.95.11-2.27.11h-.66a11.43,11.43,0,0,1-3.79-.54,4.84,4.84,0,0,1-2.06-1.3,19.05,19.05,0,0,0,.32-3.26V58.51a17.13,17.13,0,0,0-.54-2.17,15,15,0,0,0-1.73-3.47c-.76-1.09-1.52-1.63-2.28-1.63H638s-.54.44-1.3,1.2a4,4,0,0,0-1.19,2.92,13,13,0,0,0,.22,2.5c.11.54.54.87,1.19,1.08a2.29,2.29,0,0,1,1.41,1.41,7.44,7.44,0,0,1,.33,1.52c0,.22-.33.65-1,1.09a2.15,2.15,0,0,1-1.95.32,12,12,0,0,1-2.28-1.19,3,3,0,0,1-1.52-2.5c-.11-1.08-.32-1.73-.65-1.84a1.18,1.18,0,0,0-.87,0,3.54,3.54,0,0,0-1.3,1.3,5.3,5.3,0,0,0-1,2A3.49,3.49,0,0,1,627,62.74a2.2,2.2,0,0,1-1.63,1,4.7,4.7,0,0,1-2.06-.54,11.82,11.82,0,0,1-2.06-1.08,6.85,6.85,0,0,1-1.52-2.17c-.54-1.09-1.08-1.63-1.51-1.63h-.87a2.28,2.28,0,0,0-.87.65,6.87,6.87,0,0,0-1.08,1.74A6.23,6.23,0,0,1,614,62.85a5.73,5.73,0,0,1-2.28,1.73,6.93,6.93,0,0,1-2.82.44c-.76-.11-1.63-.33-2.6-.55a9,9,0,0,1-3.69-1.62A12.75,12.75,0,0,1,601,60.68a4.67,4.67,0,0,1-.87-2.28c0-.65-.11-1.41-.11-2.06s0-2.28,0-4.77a35.51,35.51,0,0,0,0-5c-.1-.87-.1-1.63-.21-2.28s-.11-1.41-.22-2.28-.32-2.49-.65-4.66a28.33,28.33,0,0,0-1.19-5.1c-.44-1.19-.76-1.84-.76-1.84a1,1,0,0,1-.22-.76,2.7,2.7,0,0,0-.43-1.09c-.22-.32-.33-.54-.55-.86a4.84,4.84,0,0,0-1.3-1A1.91,1.91,0,0,0,593,26.3a5.59,5.59,0,0,0-1.74,1.84,5.17,5.17,0,0,0-1.08,2.71V32.8A3.36,3.36,0,0,0,591.34,35a10.83,10.83,0,0,1,2.06,2.5,23.71,23.71,0,0,1,1.52,3.58,9.82,9.82,0,0,1,.76,2.82c0,.43.21,2.17.54,5.31a38,38,0,0,1,.22,6.51,9,9,0,0,0-.11,2.28,2.39,2.39,0,0,1,.11.76A14.82,14.82,0,0,1,594.92,61,9.41,9.41,0,0,0,593,64a13.92,13.92,0,0,0-.44,2.82,5.1,5.1,0,0,0,.22,2.49,1.24,1.24,0,0,0,1.19.66,6.12,6.12,0,0,0,1.52-.11,6,6,0,0,0,1.84-1,4.84,4.84,0,0,1,1.74-1,15.46,15.46,0,0,1,3.58,2,10.42,10.42,0,0,0,5.1,1.95h2.92v-.11c1.85-.22,3.91-1.41,6-3.47a11.85,11.85,0,0,0,1.3,1.41,7,7,0,0,0,3.36,1.52A8.21,8.21,0,0,0,624.74,71.74Z"/><path class="cls-1" d="M666.39,36a3.36,3.36,0,0,1,1.09,2.49c.1,1.31.21,3.15.21,5.54a41.84,41.84,0,0,0,.11,4.55,10.26,10.26,0,0,1,0,1.84v2.5c0,1.08.11,3,.22,6s0,4.78-.33,5.64a5.44,5.44,0,0,0-.43,1.85v2.93c0,.43.65,1.08,2.06,1.73a8.49,8.49,0,0,0,3.47,1,1.55,1.55,0,0,0,1.63-1.41,9.72,9.72,0,0,0,.32-1.85,4.78,4.78,0,0,0-.11-1.19,12.83,12.83,0,0,0-1.3-2.71,10.29,10.29,0,0,1-1.52-3.47,12.12,12.12,0,0,1-.32-2.17,15.17,15.17,0,0,0-.11-2.06c-.11-.87-.11-2.6-.11-5.1V46.14a17.58,17.58,0,0,0-.11-2.82c0-.43-.11-.86-.11-1.3V38.55a15.77,15.77,0,0,0-.1-2.38,8.18,8.18,0,0,1-.11-1.63V31.61A4.17,4.17,0,0,0,669,28.14a5.48,5.48,0,0,0-2.92-1.3c-.66,0-1.31.76-1.74,2.39a23.61,23.61,0,0,0-.76,2.82,5.13,5.13,0,0,0,1,2A5.45,5.45,0,0,0,666.39,36Z"/><path class="cls-1" d="M693.07,70.22c.11.44,1,.87,2.6,1.3a12.25,12.25,0,0,0,3,.76H700a1.42,1.42,0,0,0,1.09-.43,4.57,4.57,0,0,1,2.49-.43c1.41,0,2.6-1.2,3.58-3.69S708.8,64,709,64a.56.56,0,0,1,.55.43c.11.22.32.87.76,2a12,12,0,0,0,1.62,2.82,5.21,5.21,0,0,0,2.93,2.06,15.94,15.94,0,0,0,5.1.54V72c.11,0,.22-.11.32-.11h1.31v-.33a13.54,13.54,0,0,0,4.12-2c3.14-2.93,4.88-4.34,5.09-4.34h.11a10.94,10.94,0,0,0,1.74,3c1.73,2.39,4.66,3.58,8.89,3.58h2.06a10.5,10.5,0,0,0,6.62-2.17c4.55-3.36,6.83-8.24,6.83-14.75a12.29,12.29,0,0,0-.65-4.34q-3.58-7.16-5.86-7.16h-.65c-1.41,0-2.49,1.63-3.36,4.78a4.41,4.41,0,0,0,.76,2.38c3.47,2.17,5.21,4.56,5.21,7.27a7.77,7.77,0,0,1-1.31,4.77c-.54,1-1.73,1.74-3.79,2.39a30.89,30.89,0,0,1-5.1.54,8,8,0,0,1-3.58-.87,7.12,7.12,0,0,1-3.36-3.9,7,7,0,0,0,.54-2.61c-.11-.65-.54-1-1.41-1h-1.08q-1.8,0-5.86,3.25c-3,3.25-5.53,4.88-7.7,5h-.65a15.16,15.16,0,0,1-2.06-.65,5.14,5.14,0,0,1-1.63-.87,14.94,14.94,0,0,1-1.73-3.36,14.42,14.42,0,0,1-1.41-5.21,3.38,3.38,0,0,0-1.3-3c-.87-.55-1.31-1-1.31-1.09s.22-1.19.55-3,.54-2.82.43-2.82-.11-.22,0-.76a24.64,24.64,0,0,0,0-4.23c-.11-2.28-.65-3.58-2-4a9.16,9.16,0,0,0-2.93-.65c-.76,0-1.3,1-1.74,3s-.65,3.14-.65,3.36a1.3,1.3,0,0,0,.44.87,15.34,15.34,0,0,0,1.52,1.63,4.1,4.1,0,0,1,1.19,3,6.61,6.61,0,0,1-1.63,4,15.24,15.24,0,0,1-5.1,3.9A41.81,41.81,0,0,0,695.57,58a15.86,15.86,0,0,1-1.74,1.08c-.54.33-1,1.41-1.3,3.47a37.3,37.3,0,0,0-.54,4.12,4.42,4.42,0,0,0,.54,2C692.75,69.35,693,69.9,693.07,70.22Zm6.73-6.83c.86-.22,2.16-1.19,3.9-3s2.6-2.71,2.71-2.49a.55.55,0,0,1,.22.43,13.24,13.24,0,0,1-.54,1.63A24.15,24.15,0,0,0,705,63c-.32,1.08-1.3,1.62-2.71,1.62h-2.82c-.43,0-.76-.11-.76-.32s-.11-.33-.11-.44C698.39,63.71,698.93,63.61,699.8,63.39Z"/><path class="cls-1" d="M701.1,33.46h1.19A2.86,2.86,0,0,0,703.7,33a7.8,7.8,0,0,0,1.84-1.63c.65-.75,1-1.08,1.09-.86s.32.43.54.76a5.12,5.12,0,0,0,.65.76,1.48,1.48,0,0,0,1.09.32h1.51a4.57,4.57,0,0,0,2.17-.87c.87-.65,1.3-1.08,1.3-1.62v-1.2a4.23,4.23,0,0,0-1-1.84c-.65-.87-1.19-1.3-1.63-1.3h-1.73a2.65,2.65,0,0,0-2,.87,7.24,7.24,0,0,0-1.3,1.84c-.32.65-.54.76-.76.22a2.93,2.93,0,0,0-1-1.31,2.54,2.54,0,0,0-1.52-.43h-1.52a5,5,0,0,0-1.84.54c-.76.44-1.09.87-1.09,1.52v1.85a2.82,2.82,0,0,0,1,1.84C700.23,33.13,700.66,33.46,701.1,33.46Z"/><path class="cls-1" d="M738.51,76.84h-.86A5.27,5.27,0,0,0,732.77,80l.43,1.85a5.49,5.49,0,0,0,4,1.84c3.26-.54,4.88-1.84,4.88-3.69l-.54-2.17A4.2,4.2,0,0,0,738.51,76.84Z"/><path class="cls-1" d="M724,77.16c-2.28,1-3.36,2-3.36,2.71v1.74c1.3,1.41,2.39,2.17,3.47,2.17h.65c3.36-.54,5-1.63,5-3V80a4.3,4.3,0,0,0-4.34-3.14Z"/><path class="cls-1" d="M753.7,77.49v-1.3c-1.3-1.74-2.5-2.61-3.58-2.61-2.06,0-3.58,1.41-4.34,4.13v.21c.33,1.3.76,2.06,1.3,2.28a3.37,3.37,0,0,0,2,1.19C751.1,81.39,752.61,80.09,753.7,77.49Z"/><path class="cls-1" d="M743.07,93.76a2,2,0,0,0,1.08,2.06,7.22,7.22,0,0,0,3.37,1c1.3.11,2.49.11,3.36.11s2.6-.21,5.2-.54a33.67,33.67,0,0,0,9.12-2.71,44.66,44.66,0,0,0,9.54-5.75c2.82-2.39,4.88-4.55,6-6.72a26.6,26.6,0,0,0,2.07-4.67,27.4,27.4,0,0,0,.54-3.79,28.16,28.16,0,0,0-.11-5.21,20.86,20.86,0,0,0-.87-4.66,31.91,31.91,0,0,0-1.63-3.69,10.24,10.24,0,0,0-2.82-3.36,5.4,5.4,0,0,0-4.33-1.09A7.1,7.1,0,0,0,769.1,57a28,28,0,0,0-2.71,3.47,14.51,14.51,0,0,0-1.3,3.25,8.44,8.44,0,0,0-.22,3.26,8.55,8.55,0,0,0,1.41,3,5.46,5.46,0,0,0,3.15,2.06,9.45,9.45,0,0,0,2.27.54h1.63a6.66,6.66,0,0,0,2.28-.33,12.73,12.73,0,0,0,2.06-1.08,26.76,26.76,0,0,1-.44,3.47,11.31,11.31,0,0,1-2,4.55A19.22,19.22,0,0,1,770.94,84a40.54,40.54,0,0,1-6.29,4.23,33.61,33.61,0,0,1-7.59,3,33.27,33.27,0,0,1-8.89,1.09C744.91,92.56,743.29,92.89,743.07,93.76ZM775.72,66.1a1.23,1.23,0,0,1-.55.54,2.42,2.42,0,0,1-1.41.33,3.62,3.62,0,0,1-1.62-.22,3.87,3.87,0,0,1-1.09-.76,1.74,1.74,0,0,1-.43-1.3,6.8,6.8,0,0,1,.65-1.73,1.62,1.62,0,0,1,1.52-1,3.1,3.1,0,0,1,2,.87,3.51,3.51,0,0,1,1.08,1.95A3.67,3.67,0,0,1,775.72,66.1Z"/><path class="cls-1" d="M829.08,51.89a3.52,3.52,0,0,0,2.71-1.19,3.82,3.82,0,0,0,1-2.49,2.81,2.81,0,0,0-3.14-3.15,3.51,3.51,0,0,0-2.6,1,3.08,3.08,0,0,0-1,2.17,3.5,3.5,0,0,0,1.08,2.49C827.88,51.46,828.43,51.89,829.08,51.89Z"/><path class="cls-1" d="M880.05,67.19a7.85,7.85,0,0,0,.54-3.26,31.15,31.15,0,0,0-.43-4.88c-.22-2.06-.54-6-.87-11.71s-.54-9.44-.76-10.74a16.72,16.72,0,0,0-1-4.34,12.3,12.3,0,0,0-1.63-3.36,4,4,0,0,0-1.74-1.41c-.54-.22-1.41,0-2.6.65a2.9,2.9,0,0,0-1.73,2.71,23.24,23.24,0,0,0,.21,3,3.24,3.24,0,0,0,2,2.28,5.2,5.2,0,0,1,2.38,3.47,37.93,37.93,0,0,1,.65,8.67c0,4.13.11,7,.22,8.68s.22,3.15.32,4.34a5.71,5.71,0,0,1-.43,2.93,2.82,2.82,0,0,1-2.39,1.19c-1.19.11-1.95.11-2.27.11h-2.28a6.1,6.1,0,0,1-3.25-.87,10.6,10.6,0,0,0-.76-3c-.44-1-.87-1.84-1.3-2.6a7.87,7.87,0,0,0-1.85-1.95,5.72,5.72,0,0,0-2.38-1.3,10.61,10.61,0,0,0-2.61-.33,7.36,7.36,0,0,0-3.36,1.41,7.22,7.22,0,0,0-2.93,3.36,23.17,23.17,0,0,0-1.19,3.47,2,2,0,0,1-1.74,1.74c-.86.11-1.51.22-2,.22h-2.28a8,8,0,0,1-3.58-.87,7.15,7.15,0,0,1-3.36-3.91,6.77,6.77,0,0,0,.54-2.6c-.1-.65-.54-1-1.41-1h-.65q-1.78,0-5.85,3.25c-2.93,3.14-5.43,4.77-7.49,5h-1a1.89,1.89,0,0,1-1.41-.54,3.91,3.91,0,0,1-.33-2c0-1,0-1.51-.11-1.51s-.1-.33-.1-.76-.33-.76-.87-1-1.85-.54-3.69-1.19-3.58-1.09-4.88-1.52A10.56,10.56,0,0,1,805,55.36c-1-.76-1.74-1.41-2.5-2s-1.41-1.08-2-1.52-1.3-1.3-2.28-2.27A10.18,10.18,0,0,1,796.21,46a20.83,20.83,0,0,1-.86-3.26,18,18,0,0,1-.11-2.49,9.15,9.15,0,0,1,.43-2.5,6.46,6.46,0,0,1,.87-1.95,6.28,6.28,0,0,1,1-1.3c.32-.33,1.08-1.08,2.16-2.06a15.53,15.53,0,0,1,2-1.52,2.59,2.59,0,0,0,1-.87,3,3,0,0,0,.76-1.73c.11-.65.22-1.09.22-1.3a1,1,0,0,0-.22-.87,1.08,1.08,0,0,0-.87-.54,2.06,2.06,0,0,0-1.3.76c-.54.54-1.41,1.3-2.71,2.38a13.18,13.18,0,0,0-3.14,3.8,23.81,23.81,0,0,0-1.52,3.14c-.22.65-.44,1.3-.54,1.74s-.33,1.19-.55,2.28a15.93,15.93,0,0,0-.32,3.14v2.28c0,.54.11,1.19.21,2.06a11.29,11.29,0,0,0,.66,2.6,25.66,25.66,0,0,0,1.19,2.71,25.7,25.7,0,0,0,4.12,4.78c2.28,2.27,3,3.47,2.39,3.57a11.72,11.72,0,0,1-2,.11,40,40,0,0,1-4.44-.43,37.2,37.2,0,0,0-4.12-.43,2.24,2.24,0,0,0-1.31.54,3.72,3.72,0,0,0-1,1.84,20,20,0,0,0-.54,2.28,3.88,3.88,0,0,0,.1,2,3.55,3.55,0,0,0,.87,1.41c.33.33.54.54.54.87s1,.54,2.82,1a19.3,19.3,0,0,0,3.69.54,3,3,0,0,0,1.63-.44,5.72,5.72,0,0,0,1.84-1.62c.76-.87,1.2-1.2,1.63-1.2s1.73,0,4,.11h7.05c.44,0,1.3.87,2.5,2.5a4.9,4.9,0,0,0,4,2.38h3.25v-.21A12.47,12.47,0,0,0,826.15,70c3.14-2.92,4.88-4.33,5.1-4.33h.1a10.85,10.85,0,0,0,1.74,3c1.73,2.28,4.55,3.47,8.57,3.58v.11h1.41a14.65,14.65,0,0,0,6.94-1.3,10,10,0,0,0,2,1.73,5,5,0,0,0,2.5,1,12.73,12.73,0,0,0,3.47-.11c1.41-.21,2.92-1.08,4.77-2.71a7.9,7.9,0,0,0,4.45,1.3h2.27A22.59,22.59,0,0,0,873,72a12.07,12.07,0,0,0,4.23-1.74A8.71,8.71,0,0,0,880.05,67.19Zm-21-.76a3.24,3.24,0,0,1-1.19.54,4,4,0,0,1-2.17-.33,2.43,2.43,0,0,1-1.52-1.41,2.9,2.9,0,0,1-.22-1.62,2.32,2.32,0,0,1,.22-1.09,1.12,1.12,0,0,1,.65-.54,2.71,2.71,0,0,1,1.09-.22,3.85,3.85,0,0,1,1.84.76,5.6,5.6,0,0,1,1.95,3.15C859.34,66,859.12,66.32,859,66.43Z"/><path class="cls-1" d="M887.1,36a3.36,3.36,0,0,1,1.09,2.49c.1,1.31.21,3.15.21,5.54a41.84,41.84,0,0,0,.11,4.55,10.26,10.26,0,0,1,0,1.84,18.46,18.46,0,0,0,0,2.5c0,1.08.11,3,.22,6s0,4.78-.33,5.64a5.44,5.44,0,0,0-.43,1.85v2.93c0,.43.65,1.08,2.06,1.73a8.49,8.49,0,0,0,3.47,1,1.55,1.55,0,0,0,1.63-1.41,11.35,11.35,0,0,0,.32-1.85,4.78,4.78,0,0,0-.11-1.19A12.83,12.83,0,0,0,894,64.8a10.29,10.29,0,0,1-1.52-3.47,12.12,12.12,0,0,1-.32-2.17,15.17,15.17,0,0,0-.11-2.06c-.11-.87-.11-2.6-.11-5.1V46.14a17.58,17.58,0,0,0-.11-2.82c0-.43-.11-.86-.11-1.3V38.55a15.77,15.77,0,0,0-.1-2.38,8.18,8.18,0,0,1-.11-1.63V31.61a4.17,4.17,0,0,0-1.85-3.47,5.45,5.45,0,0,0-2.92-1.3c-.65,0-1.31.76-1.74,2.39a23.61,23.61,0,0,0-.76,2.82,5.13,5.13,0,0,0,1,2A5.45,5.45,0,0,0,887.1,36Z"/><path class="cls-2" d="M270.14,124.75h5.4V113h6.65v11.76h5.4v5.4h-5.4v12.43h-6.65V130.15h-5.4Z"/><path class="cls-2" d="M305.13,136.61a7.34,7.34,0,0,1-.48,2.6,7,7,0,0,1-3.57,3.57,6.2,6.2,0,0,1-2.7.48,7.57,7.57,0,0,1-2.6-.48,7,7,0,0,1-3.57-3.57,5.78,5.78,0,0,1-.48-2.6,8.33,8.33,0,0,1,.48-2.7,5.53,5.53,0,0,1,1.45-2.12,8.37,8.37,0,0,1,2.12-1.45,5.78,5.78,0,0,1,2.6-.48,8.33,8.33,0,0,1,2.7.48,6.91,6.91,0,0,1,2.12,1.45,6.31,6.31,0,0,1,1.93,4.82Zm-4.15,0a2.79,2.79,0,0,0-.19-1,2.29,2.29,0,0,0-.58-.86,6.11,6.11,0,0,0-.86-.58,3.36,3.36,0,0,0-1-.2,3.29,3.29,0,0,0-1,.2,2.21,2.21,0,0,0-.87.58,2.72,2.72,0,0,0-.58.86,3.71,3.71,0,0,0-.19,1.06,4.3,4.3,0,0,0,.19,1.06,2.32,2.32,0,0,0,.58.87,3.26,3.26,0,0,0,.87.58,1.9,1.9,0,0,0,1,.19,3.34,3.34,0,0,0,1-.19,2.37,2.37,0,0,0,.86-.58,3,3,0,0,0,.58-.87A6.59,6.59,0,0,0,301,136.61Z"/><path class="cls-2" d="M342.52,127.93a15.39,15.39,0,0,1-1.15,6,15,15,0,0,1-3.28,4.91A15.48,15.48,0,0,1,333,142.1a18.15,18.15,0,0,1-6.65,1.25,15.85,15.85,0,0,1-6.55-1.25,15.48,15.48,0,0,1-5.11-3.28,13.26,13.26,0,0,1-3.28-4.91,15.39,15.39,0,0,1-1.15-6,16.21,16.21,0,0,1,1.15-6.07,15,15,0,0,1,3.28-4.91,15.48,15.48,0,0,1,5.11-3.28,18,18,0,0,1,6.55-1.25,15.9,15.9,0,0,1,6.56,1.25A15.43,15.43,0,0,1,338,117a15,15,0,0,1,3.28,4.91A14.54,14.54,0,0,1,342.52,127.93Zm-6.84,0a9.7,9.7,0,0,0-.67-3.76,11.48,11.48,0,0,0-1.93-3.08,11.15,11.15,0,0,0-3-2.12,9.08,9.08,0,0,0-7.32,0,9.08,9.08,0,0,0-3,2,9.22,9.22,0,0,0-1.93,3.09,10.89,10.89,0,0,0,0,7.52,11.24,11.24,0,0,0,1.93,3.08,8.93,8.93,0,0,0,3,2,9.38,9.38,0,0,0,3.66.77,9.57,9.57,0,0,0,3.76-.77,9,9,0,0,0,3-2,9.28,9.28,0,0,0,1.93-3.08A10.75,10.75,0,0,0,335.68,127.93Zm-13.2,0a3.84,3.84,0,0,1,.29-1.54,3.64,3.64,0,0,1,.86-1.25,3.57,3.57,0,0,1,1.26-.87,4.23,4.23,0,0,1,3.08,0,4.32,4.32,0,0,1,2.12,2.12,4,4,0,0,1,.29,1.54,4.11,4.11,0,0,1-.29,1.55,3.63,3.63,0,0,1-.87,1.25,3.81,3.81,0,0,1-1.25.87,4.37,4.37,0,0,1-3.08,0,3.85,3.85,0,0,1-1.26-.87,5.78,5.78,0,0,1-.86-1.25A3.93,3.93,0,0,1,322.48,127.93Z"/><path class="cls-2" d="M348.5,142.58V113h22.17v5.4H355.15v18.8h15.52v5.39Z"/><path class="cls-2" d="M395.24,117,385,121.67l7.22,6.26L385,134.2l10.21,4.72-2.79,4.72-17.35-8.29,8.67-7.42-8.67-7.51,17.35-8.29Z"/><path class="cls-2" d="M432.25,127.93a15.13,15.13,0,0,1-4.43,10.89,15.58,15.58,0,0,1-5.11,3.28,18.15,18.15,0,0,1-6.65,1.25,15.82,15.82,0,0,1-6.55-1.25,15.38,15.38,0,0,1-5.11-3.28,13.26,13.26,0,0,1-3.28-4.91,15.4,15.4,0,0,1-1.16-6,16.22,16.22,0,0,1,1.16-6.07A15,15,0,0,1,404.4,117a15.38,15.38,0,0,1,5.11-3.28,18,18,0,0,1,6.55-1.25,15.82,15.82,0,0,1,6.55,1.25,15.38,15.38,0,0,1,5.11,3.28,15,15,0,0,1,3.28,4.91A14.54,14.54,0,0,1,432.25,127.93Zm-6.74,0a9.71,9.71,0,0,0-.68-3.76,11.24,11.24,0,0,0-1.93-3.08,11.1,11.1,0,0,0-3-2.12,9.11,9.11,0,0,0-7.33,0,9.18,9.18,0,0,0-3,2,9.36,9.36,0,0,0-1.92,3.09,10.74,10.74,0,0,0,0,7.52,11.21,11.21,0,0,0,1.92,3.08,9,9,0,0,0,3,2,9.32,9.32,0,0,0,7.42,0,9,9,0,0,0,3-2,9.18,9.18,0,0,0,2.51-6.75Z"/><path class="cls-2" d="M457.12,117l-10.22,4.72,7.23,6.26-7.23,6.27,10.22,4.72-2.8,4.72L437,135.35l8.68-7.42L437,120.42l17.35-8.29Z"/><path class="cls-2" d="M460.88,124.75h5.39V113h6.65v11.76h5.4v5.4h-5.4v12.43h-6.65V130.15h-5.39Z"/><path class="cls-2" d="M493.16,124.75h5.4V113h6.65v11.76h5.4v5.4h-5.4v12.43h-6.65V130.15h-5.4Z"/><path class="cls-2" d="M528.15,136.61a7.34,7.34,0,0,1-.48,2.6,7,7,0,0,1-3.57,3.57,6.2,6.2,0,0,1-2.7.48,7.57,7.57,0,0,1-2.6-.48,7,7,0,0,1-3.57-3.57,5.78,5.78,0,0,1-.48-2.6,8.6,8.6,0,0,1,.48-2.7,5.64,5.64,0,0,1,1.45-2.12,8.37,8.37,0,0,1,2.12-1.45,5.78,5.78,0,0,1,2.6-.48,8.33,8.33,0,0,1,2.7.48,6.91,6.91,0,0,1,2.12,1.45,6.31,6.31,0,0,1,1.93,4.82Zm-4.15,0a2.79,2.79,0,0,0-.19-1,2.18,2.18,0,0,0-.58-.86,6.11,6.11,0,0,0-.86-.58,3.36,3.36,0,0,0-1-.2,3.29,3.29,0,0,0-1,.2,2.21,2.21,0,0,0-.87.58,3.63,3.63,0,0,0-.58.86,2.12,2.12,0,0,0-.19,1.06,4.3,4.3,0,0,0,.19,1.06,2.32,2.32,0,0,0,.58.87,2.59,2.59,0,0,0,1.83.77,3.34,3.34,0,0,0,1-.19,2.29,2.29,0,0,0,.86-.58,3,3,0,0,0,.58-.87A6.59,6.59,0,0,0,524,136.61Z"/><path class="cls-2" d="M533.93,142.58V113H556.1v5.4H540.58v18.8H556.1v5.39Z"/><path class="cls-2" d="M574.51,136.61a7.57,7.57,0,0,1-.48,2.6,7,7,0,0,1-3.57,3.57,6.22,6.22,0,0,1-2.7.48,7.57,7.57,0,0,1-2.6-.48,7,7,0,0,1-3.57-3.57,5.78,5.78,0,0,1-.48-2.6,8.33,8.33,0,0,1,.48-2.7,5.53,5.53,0,0,1,1.45-2.12,8.37,8.37,0,0,1,2.12-1.45,5.78,5.78,0,0,1,2.6-.48,8.38,8.38,0,0,1,2.7.48,6.91,6.91,0,0,1,2.12,1.45,8.37,8.37,0,0,1,1.45,2.12A8.6,8.6,0,0,1,574.51,136.61Zm-4.15,0a2.79,2.79,0,0,0-.19-1,2.29,2.29,0,0,0-.58-.86,5.71,5.71,0,0,0-.87-.58,3.23,3.23,0,0,0-1-.2,3.29,3.29,0,0,0-1,.2,2.21,2.21,0,0,0-.87.58,3.35,3.35,0,0,0-.58.86,3.71,3.71,0,0,0-.19,1.06,4.3,4.3,0,0,0,.19,1.06,2.32,2.32,0,0,0,.58.87,2.59,2.59,0,0,0,1.83.77,3.21,3.21,0,0,0,1-.19,2.32,2.32,0,0,0,.87-.58,3.26,3.26,0,0,0,.58-.87A6.59,6.59,0,0,0,570.36,136.61Z"/><path class="cls-2" d="M578.56,124.75H584V113h6.65v11.76H596v5.4h-5.4v12.43H584V130.15h-5.39Z"/><path class="cls-2" d="M599.28,124.75h5.39V113h6.65v11.76h5.4v5.4h-5.4v12.43h-6.65V130.15h-5.39Z"/><path class="cls-2" d="M634.26,136.61a7.34,7.34,0,0,1-.48,2.6,8.12,8.12,0,0,1-1.45,2.12,8,8,0,0,1-2.12,1.45,6.18,6.18,0,0,1-2.69.48,7.58,7.58,0,0,1-2.61-.48,6.41,6.41,0,0,1-2.12-1.45,8.34,8.34,0,0,1-1.44-2.12,5.65,5.65,0,0,1-.48-2.6,8.33,8.33,0,0,1,.48-2.7,5.51,5.51,0,0,1,1.44-2.12,8.37,8.37,0,0,1,2.12-1.45,5.8,5.8,0,0,1,2.61-.48,8.27,8.27,0,0,1,2.69.48,6.79,6.79,0,0,1,2.12,1.45,8.12,8.12,0,0,1,1.45,2.12A8.33,8.33,0,0,1,634.26,136.61Zm-4.14,0a3,3,0,0,0-.19-1,2.29,2.29,0,0,0-.58-.86,5.71,5.71,0,0,0-.87-.58,3.29,3.29,0,0,0-1-.2,3.36,3.36,0,0,0-1,.2,2.21,2.21,0,0,0-.87.58,2.66,2.66,0,0,0-.77,1.92,3.89,3.89,0,0,0,.2,1.06,2.29,2.29,0,0,0,.57.87,3.63,3.63,0,0,0,.87.58,3.34,3.34,0,0,0,1,.19,3.27,3.27,0,0,0,1-.19,2.32,2.32,0,0,0,.87-.58,3.52,3.52,0,0,0,.58-.87A7.71,7.71,0,0,0,630.12,136.61Z"/><path class="cls-2" d="M638.79,140.17l10-10.21-9.64-9.54,15.51-8.29,3.09,4.72-8.68,4.82,8.2,8.29-13.5,14Z"/><path class="cls-2" d="M661.54,124.75h5.4V113h6.65v11.76H679v5.4h-5.39v12.43h-6.65V130.15h-5.4Z"/><path class="cls-2" d="M696.33,142.58V113H703v29.59Z"/><path class="cls-2" d="M734.79,119.26a7.34,7.34,0,0,1-.49,2.6,6.72,6.72,0,0,1-1.44,2.12,8.37,8.37,0,0,1-2.12,1.45,6.58,6.58,0,0,1-2.7.58,5.81,5.81,0,0,1-2.6-.58,7,7,0,0,1-3.57-3.57,6.44,6.44,0,0,1-.58-2.6,6.58,6.58,0,0,1,.58-2.7,6.91,6.91,0,0,1,1.45-2.12,8.37,8.37,0,0,1,2.12-1.45,6,6,0,0,1,2.6-.48,8.66,8.66,0,0,1,2.7.48,6.91,6.91,0,0,1,2.12,1.45,8.09,8.09,0,0,1,1.44,2.12A8.38,8.38,0,0,1,734.79,119.26Zm0,17.44a7.39,7.39,0,0,1-.49,2.61,6.84,6.84,0,0,1-1.44,2.12,8.34,8.34,0,0,1-2.12,1.44,6.43,6.43,0,0,1-2.7.58,5.68,5.68,0,0,1-2.6-.58,6.9,6.9,0,0,1-3.57-3.56,6.18,6.18,0,0,1-.58-2.61,6.58,6.58,0,0,1,.58-2.7,7,7,0,0,1,1.45-2.12,8.34,8.34,0,0,1,2.12-1.44A5.88,5.88,0,0,1,728,130a8.38,8.38,0,0,1,2.7.48,6.89,6.89,0,0,1,2.12,1.44A8.09,8.09,0,0,1,734.3,134,8.38,8.38,0,0,1,734.79,136.7Zm-4.73-17.44a1.75,1.75,0,0,0-.19-.77,5.72,5.72,0,0,0-.38-.68,4.44,4.44,0,0,0-.68-.48,2.18,2.18,0,0,0-.77-.19,1.75,1.75,0,0,0-.77.19,4.56,4.56,0,0,0-.68.39,1.47,1.47,0,0,0-.38.67,2.18,2.18,0,0,0-.19.77,1.75,1.75,0,0,0,.19.77,4.13,4.13,0,0,0,.38.68,1.57,1.57,0,0,0,.68.38,1.75,1.75,0,0,0,.77.2,2,2,0,0,0,1.45-.58A1.63,1.63,0,0,0,730.06,119.26Zm0,17.44a1.78,1.78,0,0,0-.19-.77,4.84,4.84,0,0,0-.38-.67,4.44,4.44,0,0,0-.68-.48,2.2,2.2,0,0,0-.77-.2,1.75,1.75,0,0,0-.77.2,4.59,4.59,0,0,0-.68.38,1.51,1.51,0,0,0-.38.68,2.18,2.18,0,0,0-.19.77,1.75,1.75,0,0,0,.19.77,4,4,0,0,0,.38.67,1.58,1.58,0,0,0,.68.39,1.89,1.89,0,0,0,.77.19,2,2,0,0,0,1.45-.58A1.63,1.63,0,0,0,730.06,136.7Z"/><path class="cls-2" d="M772.18,127.93a15.24,15.24,0,0,1-4.43,10.89,15.58,15.58,0,0,1-5.11,3.28,18.15,18.15,0,0,1-6.65,1.25,15.82,15.82,0,0,1-6.55-1.25,15.38,15.38,0,0,1-5.11-3.28,13.26,13.26,0,0,1-3.28-4.91,15.4,15.4,0,0,1-1.16-6,16.22,16.22,0,0,1,1.16-6.07,15,15,0,0,1,3.28-4.91,15.38,15.38,0,0,1,5.11-3.28,18,18,0,0,1,6.55-1.25,15.82,15.82,0,0,1,6.55,1.25,15.38,15.38,0,0,1,5.11,3.28,15,15,0,0,1,3.28,4.91A14.54,14.54,0,0,1,772.18,127.93Zm-6.75,0a9.7,9.7,0,0,0-.67-3.76,9.32,9.32,0,0,0-4.92-5.2,9.56,9.56,0,0,0-3.66-.77,9.56,9.56,0,0,0-6.65,2.79,9.38,9.38,0,0,0-1.93,3.09,10.89,10.89,0,0,0,0,7.52,11.48,11.48,0,0,0,1.93,3.08,9,9,0,0,0,3,2,9.46,9.46,0,0,0,3.66.77,9.57,9.57,0,0,0,3.76-.77,9,9,0,0,0,3-2,9.44,9.44,0,0,0,1.93-3.08A13.92,13.92,0,0,0,765.43,127.93Zm-13.2,0a4,4,0,0,1,.29-1.54,4.32,4.32,0,0,1,2.12-2.12,4.23,4.23,0,0,1,3.08,0,3.57,3.57,0,0,1,1.26.87,3.64,3.64,0,0,1,.86,1.25,3.84,3.84,0,0,1,.29,1.54,3.93,3.93,0,0,1-.29,1.55,3.74,3.74,0,0,1-.86,1.25,3.85,3.85,0,0,1-1.26.87,4.37,4.37,0,0,1-3.08,0,3.81,3.81,0,0,1-1.25-.87,5.82,5.82,0,0,1-.87-1.25A4.11,4.11,0,0,1,752.23,127.93Z"/><path class="cls-2" d="M802.83,113v17.83h-9.06v11.76h-6.65V130.82h-9.06V113h6.65v12.44h11.47V113Z"/><path class="cls-2" d="M828.08,117l-10.22,4.72,7.23,6.26-7.23,6.27,10.22,4.72-2.79,4.72-17.35-8.29,8.67-7.42-8.67-7.51,17.35-8.29Z"/><path class="cls-2" d="M833.38,142.58V113H840v24.2h10.31V113H857v29.59Z"/><path class="cls-2" d="M895.26,127.93a15.4,15.4,0,0,1-1.16,6,15,15,0,0,1-3.28,4.91,15.43,15.43,0,0,1-5.1,3.28,18.23,18.23,0,0,1-6.65,1.25,15.9,15.9,0,0,1-6.56-1.25,15.58,15.58,0,0,1-5.11-3.28,13.36,13.36,0,0,1-3.27-4.91,15.4,15.4,0,0,1-1.16-6,16.22,16.22,0,0,1,1.16-6.07A15.14,15.14,0,0,1,867.4,117a15.58,15.58,0,0,1,5.11-3.28,18.11,18.11,0,0,1,6.56-1.25,15.85,15.85,0,0,1,6.55,1.25,15.58,15.58,0,0,1,5.11,3.28,15.14,15.14,0,0,1,3.27,4.91A14.55,14.55,0,0,1,895.26,127.93Zm-6.75,0a9.7,9.7,0,0,0-.67-3.76,11.48,11.48,0,0,0-1.93-3.08,11.15,11.15,0,0,0-3-2.12,9.08,9.08,0,0,0-7.32,0,8.73,8.73,0,0,0-4.92,5.11,10.89,10.89,0,0,0,0,7.52,11.24,11.24,0,0,0,1.93,3.08,9,9,0,0,0,3,2,9.42,9.42,0,0,0,3.66.77,9.57,9.57,0,0,0,3.76-.77,9,9,0,0,0,3-2,9.28,9.28,0,0,0,1.93-3.08A13.9,13.9,0,0,0,888.51,127.93Zm-13.3,0a4,4,0,0,1,.29-1.54,4.32,4.32,0,0,1,2.12-2.12,4.23,4.23,0,0,1,3.08,0,3.57,3.57,0,0,1,1.26.87,3.64,3.64,0,0,1,.86,1.25,3.84,3.84,0,0,1,.29,1.54,3.93,3.93,0,0,1-.29,1.55,3.74,3.74,0,0,1-.86,1.25,3.85,3.85,0,0,1-1.26.87,4.38,4.38,0,0,1-3.08,0,3.81,3.81,0,0,1-1.25-.87,3.63,3.63,0,0,1-.87-1.25A4.11,4.11,0,0,1,875.21,127.93Z"/><path class="cls-2" d="M21.11,171.28s22.81-2.08,58.34-15.69c40.33-15.44,77.15-39,107.32-70,14.33-14.73,18.41-22.25,18.41-22.25a22.76,22.76,0,0,1,5.84,10S147.56,160.8,25,177.68c0,0,86.51-4.48,139.65-48s48.9-50.73,48.9-50.73a103.56,103.56,0,0,1,4,11.36s-14.32,22.81-60.34,54.1c-42.74,29.29-116.53,37.05-129.73,37,0,0,79.95,2.32,128.77-27.05,47.38-28.57,61.94-47.45,63.86-50.9,0,0,1.12,7.61,1.52,14,0,0-39.13,38.73-82.59,53.78-45.46,17.29-95.95,13.53-108.6,14.25,0,0,25.85,4.16,61.62.48a240.11,240.11,0,0,0,97.16-32.34c22-13,30.17-20.72,31.93-22.24,0,0-1.44,11.84-3.84,19.2,0,0-40.89,24.65-70,33.38-25,7.52-67.39,12-110.93,8.4A109,109,0,0,1,21.11,171.28Z"/><path class="cls-1" d="M37.11,193.21s48.1,13,97.32,2.4c36.73-7.92,67.95-23.21,80.11-34.81,0,0-16.49,52.18-79.79,64.1C73.53,236.5,37.11,193.21,37.11,193.21Z"/><path class="cls-1" d="M196.77,41.47C157.88,1.7,104.42-6,55.76,22.82,7.5,51.47-3.14,108.62,8.14,155l.24,1.2C-11.46,99.41,4.3,50.35,51.76,18.42,107.22-18.39,168.6,5.54,196.77,41.47Z"/><path class="cls-1" d="M171.4,52.76C143.39,24.18,104.34,19.3,68.33,41c-35.7,21.53-44.26,63.38-36.58,97.08.08.32.08.56.16.88C18.07,97.73,30.23,61.8,65.44,37.79,106.58,10.18,151.24,26.91,171.4,52.76Z"/><path class="cls-1" d="M153.72,68.76c-19.85-20.25-47.38-23.85-72.67-8.64-25,15-31,44.58-25.45,68.34,0,.24.08.4.08.64C45.84,100.05,54.24,74.68,79,58,107.94,38.51,139.47,50.43,153.72,68.76Z"/><path class="cls-1" d="M129.63,84.37c-9.93-10.09-23.53-12.09-35.86-4.72s-15,21.84-12.08,33.61a.48.48,0,0,0,.08.32c-5-14.41-1-26.89,11-35C106.9,69.16,122.51,75.24,129.63,84.37Z"/></g></g></svg>