<svg xmlns="http://www.w3.org/2000/svg" viewBox="0 0 899.19 219.09"><defs><style>.cls-1{fill:#f4982f;}.cls-2,.cls-3,.cls-4{fill:#711037;}.cls-3,.cls-4{stroke:#711037;stroke-miterlimit:10;}.cls-3{stroke-width:1.5px;}</style></defs><title>Asset 3</title><g id="Layer_2" data-name="Layer 2"><g id="Layer_1-2" data-name="Layer 1"><path class="cls-1" d="M344.62,63.9h-.86A5.27,5.27,0,0,0,338.88,67l.43,1.85a5.49,5.49,0,0,0,4,1.84c3.26-.54,4.88-1.84,4.88-3.69l-.54-2.17A4.2,4.2,0,0,0,344.62,63.9Z"/><path class="cls-1" d="M330.85,70.84c3.36-.55,5-1.63,5-3V67a4.3,4.3,0,0,0-4.34-3.14l-1.41.21c-2.28,1-3.36,2-3.36,2.71v1.74c1.3,1.41,2.38,2.17,3.47,2.17h.65Z"/><path class="cls-1" d="M410.13,30.27a1.91,1.91,0,0,0,1.19,1.41,4,4,0,0,0,1.41.55,6.23,6.23,0,0,0,1.31-.11,2,2,0,0,0,1.3-.76,4.29,4.29,0,0,1,1-1,1.89,1.89,0,0,0,.44-1.08V28a8.77,8.77,0,0,0-.22-.87A2.16,2.16,0,0,0,416,26a4.22,4.22,0,0,1-.76-.65.94.94,0,0,0-.76-.21h-.76a1,1,0,0,0-.54.11,8.53,8.53,0,0,0-1.09.21,1.58,1.58,0,0,0-1.19.76,9.34,9.34,0,0,1-.76,1.09,1.67,1.67,0,0,0-.32.86V29A8.87,8.87,0,0,0,410.13,30.27Z"/><path class="cls-1" d="M438.11,50.34H440c.11,0,.11.11.21.11a.38.38,0,0,0,.22.11c.11,0,.22,0,.22.1a1.12,1.12,0,0,0,.43.11h1.41c.11,0,.22-.11.44-.11a3.46,3.46,0,0,0,1-1.41,8.23,8.23,0,0,0,.87-2.92,5.08,5.08,0,0,0,.11-2.17,5.22,5.22,0,0,0-1.19-1.52,3,3,0,0,0-2.5-.87,16.38,16.38,0,0,1-1.95.11,2.54,2.54,0,0,0-.87.22,10.49,10.49,0,0,1-1.19.32c-.54.11-.76.22-.87.22a3.4,3.4,0,0,0-.76.11,20.92,20.92,0,0,1-5-1.85c-2.82-1.3-5.31-2.38-7.48-3.47a10.48,10.48,0,0,0-6.4-1.08,10,10,0,0,0-4.56,1.73,8.17,8.17,0,0,0-2.16,3,8.83,8.83,0,0,0-.87,2.93v2a10.33,10.33,0,0,1-.11,1.84,6.84,6.84,0,0,0,0,1.52c.11.44.22,1,.43,2a7.11,7.11,0,0,1-4,1.52,6,6,0,0,1-2.71-.43c-.33-.22-.54-.87-.76-1.95a17.89,17.89,0,0,0-.33-2.28,11.34,11.34,0,0,0-.54-1.52,3,3,0,0,0-.76-1.08,7,7,0,0,1-1.41-2.17,16.86,16.86,0,0,0-3.9-4.56C393,37.11,392,36.13,392,35.91s.11-.32.22-.32a7.67,7.67,0,0,0,1.62-1.41,41.69,41.69,0,0,0,3.26-3.69,13.62,13.62,0,0,0,2.06-2.93,11.37,11.37,0,0,1,1.19-2.17,7.55,7.55,0,0,0,.87-1.73v-.33a.11.11,0,0,0-.11-.11c-.11,0,0-.32.22-.75a1.76,1.76,0,0,0,.21-.66.34.34,0,0,1-.21-.1c-.11,0-.11-.22,0-.33V21c-.11-.11-.11-.22,0-.22a3.41,3.41,0,0,0,.11-1,2.26,2.26,0,0,0-1.09-1.84c-.76-.54-1.19-.87-1.41-.87h-1.3c-.65,0-1.3.76-1.84,2.39s-.87,2.71-.66,3.25.44.76.76.87H397c.43,0,.65.33.65,1s0,1-.11,1-.11,0-.22.11-.1.54-.1,1.41-1.2,2.28-3.69,4.23a29.31,29.31,0,0,1-4,2.93,1.7,1.7,0,0,1-.87-.33c-.33-.21-1.41-.65-3.26-1.41a10.53,10.53,0,0,0-3.58-1.08h-1.41c-.32,0-1.19.22-2.71.54a9.94,9.94,0,0,0-3.25,1.19,9.3,9.3,0,0,1-1.74,1c-.43.22-.76.43-1,.54a15.62,15.62,0,0,1-2.5,1.63c-1.41.87-3.14,1.95-5.2,3a28.37,28.37,0,0,0-5.43,3.79,24.91,24.91,0,0,1-3.9,2.93,5.77,5.77,0,0,0-2.28,3.36,18.26,18.26,0,0,0-.76,2.93c0,.22-.32.43-.86.43s-1.52.11-2.82.11a7.91,7.91,0,0,1-3.58-.86A7.16,7.16,0,0,1,341,48.06a6.82,6.82,0,0,0,.55-2.6c-.11-.65-.55-1-1.41-1h-.65q-1.8,0-5.86,3.26a17.17,17.17,0,0,1-6.07,4.66c-.11,0-.22,0-.22-.11-.33-.22-.54-.87-.65-1.95a18.19,18.19,0,0,0-.33-2.28,13.61,13.61,0,0,0-.54-1.52,3.12,3.12,0,0,0-.76-1.08,6.84,6.84,0,0,1-1.41-2.17,16.86,16.86,0,0,0-3.9-4.56c-2-1.73-2.93-2.71-2.93-2.92s.11-.33.22-.33a7.31,7.31,0,0,0,1.62-1.41A41.69,41.69,0,0,0,322,30.38,13.37,13.37,0,0,0,324,27.45a15.56,15.56,0,0,1,1.19-2.16,7.74,7.74,0,0,0,.87-1.74v-.33a.1.1,0,0,0-.11-.1c-.11,0,0-.33.22-.76a1.75,1.75,0,0,0,.21-.65c-.11,0-.11,0-.21-.11s-.11-.22,0-.33v-.43c-.11-.11-.11-.22,0-.22a3.6,3.6,0,0,0,.1-1,2.25,2.25,0,0,0-1.08-1.85c-.76-.54-1.19-.87-1.41-.87h-1.3c-.65,0-1.3.76-1.85,2.39s-.86,2.71-.65,3.25.44.76.76.87h1.09c.43,0,.65.33.65,1s0,1-.11,1-.11,0-.22.11-.11.54-.11,1.41-1.19,2.28-3.68,4.23a28.28,28.28,0,0,1-4,2.93,1.7,1.7,0,0,1-.86-.33c-.33-.21-1.41-.65-3.26-1.4a10.69,10.69,0,0,0-3.58-1.09h-1.41c-.32,0-1.19.22-2.71.54a9.69,9.69,0,0,0-3.25,1.2,9.79,9.79,0,0,1-1.74,1c-.43.22-.76.44-1,.54a15.62,15.62,0,0,1-2.5,1.63c-1.41.87-3.14,1.95-5.2,3A28.37,28.37,0,0,0,283.45,43a24.91,24.91,0,0,1-3.9,2.93,5.77,5.77,0,0,0-2.28,3.36,18.54,18.54,0,0,0-.76,2.93c0,.22-1.73.44-5.2.44-3.26-.55-4.12.54-2.71,3.36,2.16,2.17,4.12,3.14,5.63,3.14s2.61-.1,3.15-.1a5.43,5.43,0,0,1,1.41.21,7.89,7.89,0,0,1,1.3.65,4.2,4.2,0,0,0,2.28.44,23.25,23.25,0,0,0,2.82-.11,4.81,4.81,0,0,0,2.06-.76c.54-.43,2.82-.76,6.72-.87s8.57-.32,14-.65a86.19,86.19,0,0,1,8.89-.32,2.4,2.4,0,0,1,1.41,1,2.38,2.38,0,0,0,2,.87,17.62,17.62,0,0,0,2.5-.22,14.82,14.82,0,0,1,3.25,0v.22c.22,0,.43-.11.65-.11.87,0,1.95.11,3.15.22l1.3-.11v-2c.21-.11.32-.22.54-.33,3.14-2.93,4.88-4.34,5.1-4.34h.1a10.94,10.94,0,0,0,1.74,3c1.74,2.39,4.66,3.58,8.89,3.58h.65l1.2-.11c1.73-.11,2.82-.22,3.36-.22a5.41,5.41,0,0,1,1.41.22,7.89,7.89,0,0,1,1.3.65,4.18,4.18,0,0,0,2.28.44,23.33,23.33,0,0,0,2.82-.11,4.81,4.81,0,0,0,2.06-.76c.54-.44,2.82-.76,6.72-.87s8.57-.32,14-.65a88.32,88.32,0,0,1,8.9-.33,2.46,2.46,0,0,1,1.41,1,2.38,2.38,0,0,0,1.95.87,17.34,17.34,0,0,0,2.49-.22c.76-.22,3.15-.11,7,.11h.44a22.41,22.41,0,0,0,7.81-2.39,8,8,0,0,0,3.14.11,5.79,5.79,0,0,0,3-.76,1.11,1.11,0,0,0,.11-1.41c4.77-1.84,7.81-2.93,9.11-3.47a8.63,8.63,0,0,1,2.38-.76h.55a27.71,27.71,0,0,1,6.5-.43C438,50.23,438.11,50.23,438.11,50.34Zm-146.63-1a14.26,14.26,0,0,0-2.82,1.3c-1.63.87-2.6,1.31-2.82,1.41H281a4.81,4.81,0,0,1-1.3-.1c-.33-.11-.44-.44-.11-1.09a6.32,6.32,0,0,1,1.84-2.17,31.64,31.64,0,0,1,3.58-2.6,24.2,24.2,0,0,0,3.47-2.28c.87-.54,1.85-1.3,3-2.06s2.49-1.63,3.9-2.49a20.57,20.57,0,0,1,3.15-1.74c.65-.32,1.3-.54,1.84-.76a3.72,3.72,0,0,1,1.41-.32h2.28a5.85,5.85,0,0,1,3,.86c.87.65.43,1.63-1.52,3s-3.36,2.6-4.45,3.25a38.28,38.28,0,0,1-3.47,2.07,24.67,24.67,0,0,0-3.79,2.38A7.37,7.37,0,0,1,291.48,49.36Zm28,1.09a18.68,18.68,0,0,1-6.4.76H307a28.25,28.25,0,0,0-2.82.21c-1.09.11-1.84.11-2.5.22s-1.51.11-3,.11h-2.82c-.44,0-.65-.11-.65-.22s.11-.32.43-.54,1.19-.76,2.6-1.63,2.39-1.41,2.93-1.84,1.85-1.3,3.8-2.71a33.22,33.22,0,0,0,4.34-3.36c.86-.87,1.52-1.31,1.84-1.31H312a1.47,1.47,0,0,1,.76.33c.21.22,1,.87,2.06,1.84A37.6,37.6,0,0,1,317.62,45c.76.76,1.08,1.2,1.3,1.2s.43.54,1.08,1.52a7,7,0,0,1,.87,1.84C321,49.58,320.55,49.91,319.46,50.45ZM367,49.36a14,14,0,0,0-2.82,1.3c-1.63.87-2.61,1.31-2.82,1.41h-4.88a4.89,4.89,0,0,1-1.31-.1c-.32-.11-.43-.44-.1-1.09a7.08,7.08,0,0,1,1.73-2.17,31.64,31.64,0,0,1,3.58-2.6,32.76,32.76,0,0,0,3.47-2.28c.87-.54,1.84-1.3,3-2.06s2.49-1.63,3.9-2.49a20.57,20.57,0,0,1,3.15-1.74c.65-.32,1.3-.54,1.84-.76a3.68,3.68,0,0,1,1.41-.32h2.28a5.88,5.88,0,0,1,3,.86c.86.65.43,1.63-1.52,3s-3.37,2.6-4.45,3.25A38.28,38.28,0,0,1,373,45.68a24.74,24.74,0,0,0-3.8,2.38A9.08,9.08,0,0,1,367,49.36Zm27.87,1.09a18.77,18.77,0,0,1-6.4.76h-6.07a28.25,28.25,0,0,0-2.82.21c-1.09.11-1.85.11-2.5.22s-1.52.11-3,.11H371.2c-.44,0-.66-.11-.66-.22s.11-.32.44-.54,1.19-.76,2.6-1.63a24.1,24.1,0,0,0,2.93-1.84c.54-.43,1.84-1.3,3.8-2.71a32.28,32.28,0,0,0,4.33-3.36c.87-.87,1.52-1.31,1.85-1.31h.87a1.47,1.47,0,0,1,.76.33c.21.22,1,.87,2.06,1.84A37.6,37.6,0,0,1,393,45c.75.76,1.08,1.2,1.3,1.2s.43.54,1.08,1.52a7.35,7.35,0,0,1,.87,1.84C396.47,49.58,395.92,49.91,394.84,50.45Zm28.52-3.36c-2.17.86-3.58,1.51-4.44,1.84a13.09,13.09,0,0,0-1.3.54c-.11,0-.66.33-1.74.76a3.66,3.66,0,0,1-1-2.06,14,14,0,0,1-.43-2.49,2.82,2.82,0,0,1,1-2,4.32,4.32,0,0,1,2.49-1.08,10.24,10.24,0,0,1,2.6,0,10.81,10.81,0,0,1,3.15,1.08,10,10,0,0,1,2.39,1.3c.21.22.32.33.43.33a.38.38,0,0,1,.11.22A25.65,25.65,0,0,1,423.36,47.09Z"/><path class="cls-1" d="M450.26,35.7l2.06-.44a4.2,4.2,0,0,0,2.39-1.84V32.33l-.44-.75a4.53,4.53,0,0,0-3.79-1.74v.22h-.11a4.8,4.8,0,0,0-3.47,2.06l-.11,2a4.26,4.26,0,0,0,3.15,1.84h.32Z"/><path class="cls-1" d="M461.76,35.48c2.6-.76,3.9-2.17,4-4.55v-.11c0-1.63-1-2.5-2.93-2.61a9.37,9.37,0,0,1-3.36.76h-.11c-1,.22-1.73,1.09-2.38,2.5V32C457.09,33.64,458.61,34.83,461.76,35.48Z"/><path class="cls-1" d="M485.08,59h0c1-.11,1.95-.11,3-.33A12.07,12.07,0,0,0,492.34,57a6.42,6.42,0,0,0,2.5-2.71,7.94,7.94,0,0,0,.54-3.25,32.43,32.43,0,0,0-.43-4.88c-.22-2.06-.55-6-.87-11.71s-.54-9.44-.76-10.74a16.75,16.75,0,0,0-1-4.34A12,12,0,0,0,490.72,16,4.07,4.07,0,0,0,489,14.55c-.54-.22-1.41,0-2.6.65a2.9,2.9,0,0,0-1.74,2.71,23.2,23.2,0,0,0,.22,3,3.25,3.25,0,0,0,1.95,2.27,5.29,5.29,0,0,1,2.39,3.48,38.53,38.53,0,0,1,.65,8.67c0,4.12.11,7.05.21,8.68s.22,3.14.33,4.34a5.82,5.82,0,0,1-.43,2.93,2.85,2.85,0,0,1-2.39,1.19c-1.19.11-1.95.11-2.28.11H485a8.1,8.1,0,0,1-2.71-.22,8.31,8.31,0,0,1-1.52-1,4.71,4.71,0,0,1-1.3-1.62,6.48,6.48,0,0,1-.55-2c-.1-.65-.21-1.62-.32-2.82s-.65-5.2-1.41-12.14-1.3-10.74-1.63-11.39-.54-1.74-.87-3A6.26,6.26,0,0,0,473,15.52a3.8,3.8,0,0,0-1.52-1,1.1,1.1,0,0,0-.76.54,12.76,12.76,0,0,0-.65,1.19,3.37,3.37,0,0,0-.65,1.41,6.26,6.26,0,0,0-.22,1.09,6.3,6.3,0,0,0,.33,1.52,10,10,0,0,0,1.08,2.17,46.23,46.23,0,0,1,2.28,6.18A56.38,56.38,0,0,1,475,38.73c.32,3.26.54,5.1.65,5.64a5.28,5.28,0,0,1,.11,1.31v1a6.13,6.13,0,0,1-.44,1.74,8.59,8.59,0,0,1-.86,2,10.7,10.7,0,0,1-1.09,1.19,4.1,4.1,0,0,1-1.84.87c-.76.22-1.41.32-1.95.43h-1.74a7.19,7.19,0,0,1-6.72-4.77,7,7,0,0,0,.54-2.6c-.11-.65-.54-1-1.41-1h-.65c-1.19,0-3.15,1.09-5.86,3.26-3,3.25-5.53,4.88-7.7,5h0l-1.63.11c-3.68.11-5.74-.65-6.18-2.38h-6.29c.87,3.25,2.06,5.42,3.58,6.29A12,12,0,0,0,440,58.58c1.41.22,2.82.44,4.34.54h1.84c1.52,0,3.36-.76,5.64-2.27,3.14-2.93,4.88-4.34,5.1-4.34H457a10.63,10.63,0,0,0,1.73,3c1.74,2.39,4.66,3.58,8.79,3.58v.11h.65c.54,0,1.19-.11,1.51-.11a5.21,5.21,0,0,0,1.63-.32,4.48,4.48,0,0,0,1.95-1.09c.65-.54,1.2-1.19,1.85-1.84s1-1.08,1.19-1.3a.69.69,0,0,1,.54-.22,4.68,4.68,0,0,1,1.09,1.41c.54.87,1,1.63,1.3,2.28a1.9,1.9,0,0,0,1.84,1Z"/><path class="cls-1" d="M514.68,57.28c.11.43,1,.87,2.61,1.3a12.62,12.62,0,0,0,3,.76h1.31a1.4,1.4,0,0,0,1.08-.43,4.59,4.59,0,0,1,2.49-.44c1.41,0,2.61-1.19,3.58-3.68s1.63-3.69,1.85-3.69a.56.56,0,0,1,.54.43c.11.22.33.87.76,1.95a14.16,14.16,0,0,0,1.63,2.82,5.06,5.06,0,0,0,2.92,2.06,15.6,15.6,0,0,0,5.1.55V59c.11,0,.22-.11.33-.11h1.3v-.33a13.79,13.79,0,0,0,4.12-1.95c3.15-2.93,4.88-4.34,5.1-4.34h.11a10.7,10.7,0,0,0,1.73,3c1.74,2.38,4.67,3.58,8.9,3.58h1.73a9.64,9.64,0,0,0,3.8-.65,15.74,15.74,0,0,0,2.6-1.52c1.84,2.49,3.69,3.79,5.64,3.79a18,18,0,0,0,5-.32,5.08,5.08,0,0,0,3.25-2.28,14.17,14.17,0,0,0,1.74-3.69,10.92,10.92,0,0,0,.54-3.68,20.66,20.66,0,0,0-1.74-5.75q-1.62-3.91-3.57-4.23a7,7,0,0,0-3.37,0c-1,.21-2.27,1.3-4,3a23.75,23.75,0,0,0-3.69,4.78,8.48,8.48,0,0,1-2.28,2.92,12.16,12.16,0,0,1-4.12,1.41h-1.19a8,8,0,0,1-3.58-.86A7.11,7.11,0,0,1,556.55,48a7,7,0,0,0,.54-2.6c-.11-.65-.54-1-1.41-1H555q-1.78,0-5.86,3.26c-3,3.25-5.53,4.88-7.7,5h-.65a15.16,15.16,0,0,1-2.06-.65,5.13,5.13,0,0,1-1.62-.87,15.21,15.21,0,0,1-1.74-3.36A14.42,14.42,0,0,1,534,42.53a3.39,3.39,0,0,0-1.3-3c-.87-.54-1.3-1-1.3-1.08s.21-1.19.54-3a13.9,13.9,0,0,0,.43-2.82c-.11,0-.11-.22,0-.76a24.58,24.58,0,0,0,0-4.23c-.11-2.27-.65-3.58-2-4a9.1,9.1,0,0,0-2.93-.65c-.76,0-1.3,1-1.73,3s-.65,3.14-.65,3.36a1.32,1.32,0,0,0,.43.87,16.79,16.79,0,0,0,1.52,1.62,4.09,4.09,0,0,1,1.19,3,6.58,6.58,0,0,1-1.63,4,15.33,15.33,0,0,1-5.09,3.91,44.06,44.06,0,0,0-4.34,2.38,14.28,14.28,0,0,1-1.74,1.09c-.54.32-1,1.41-1.3,3.47a40.06,40.06,0,0,0-.54,4.12,4.48,4.48,0,0,0,.54,1.95C514.36,56.41,514.58,57,514.68,57.28ZM575,50.34a8.83,8.83,0,0,1,.76-1.3,3.71,3.71,0,0,1,2.06-1.2,3.65,3.65,0,0,1,2.38-.1,2.08,2.08,0,0,1,1.09.76,7.36,7.36,0,0,1,1,1.62,3.24,3.24,0,0,1,.44,2.17c-.11.65-.55,1.09-1.52,1.41a6.37,6.37,0,0,1-2.82.33,5.79,5.79,0,0,1-2.5-.87,2.89,2.89,0,0,1-1.08-1.41A4.73,4.73,0,0,1,575,50.34Zm-53.58.11c.87-.22,2.17-1.2,3.9-3s2.61-2.71,2.71-2.49a.53.53,0,0,1,.22.43A13.24,13.24,0,0,1,527.7,47a26.34,26.34,0,0,0-1.09,3c-.32,1.09-1.3,1.63-2.71,1.63h-2.82c-.43,0-.76-.11-.76-.32s-.1-.33-.1-.44S520.54,50.66,521.41,50.45Z"/><path class="cls-1" d="M522.82,20.51H524a2.94,2.94,0,0,0,1.41-.43,8.27,8.27,0,0,0,1.85-1.63c.65-.76,1-1.08,1.08-.87s.33.44.54.76a4.72,4.72,0,0,0,.65.76,1.45,1.45,0,0,0,1.09.33h1.52a4.76,4.76,0,0,0,2.17-.87c.86-.65,1.3-1.08,1.3-1.63V15.74a4.24,4.24,0,0,0-1-1.84c-.65-.87-1.19-1.3-1.63-1.3h-1.73a2.64,2.64,0,0,0-1.95.86A7.26,7.26,0,0,0,528,15.31c-.32.65-.54.76-.75.21a3.06,3.06,0,0,0-1-1.3,2.53,2.53,0,0,0-1.52-.43h-1.52a5.62,5.62,0,0,0-1.84.54c-.76.43-1.09.87-1.09,1.52v1.84a2.82,2.82,0,0,0,1,1.85A2.24,2.24,0,0,0,522.82,20.51Z"/><path class="cls-1" d="M545.59,64.22c-2.27,1-3.36,2-3.36,2.71v1.74c1.3,1.41,2.39,2.17,3.47,2.17h.65c3.37-.55,5-1.63,5-3V67A4.3,4.3,0,0,0,547,63.9Z"/><path class="cls-1" d="M560.24,63.9h-.87A5.27,5.27,0,0,0,554.49,67l.43,1.85a5.51,5.51,0,0,0,4,1.84c3.25-.54,4.88-1.84,4.88-3.69l-.55-2.17A4.18,4.18,0,0,0,560.24,63.9Z"/><path class="cls-1" d="M624.33,58.8a9.68,9.68,0,0,0,2.5-1,11.43,11.43,0,0,0,2.93-2.17c1.19.87,2.17,1.52,2.82,2a4.39,4.39,0,0,0,1.84,1,3,3,0,0,0,1.41,0,24.93,24.93,0,0,0,2.28-1.19c1.19-.65,1.84-1.09,2.06-1.19a20.05,20.05,0,0,0,3.69,1.95,17.45,17.45,0,0,0,4.23.76V59H649v-.11a18.38,18.38,0,0,0,3.37-.33,12,12,0,0,0,4.23-1.73A6.4,6.4,0,0,0,659,54.13a7.94,7.94,0,0,0,.54-3.25,32.43,32.43,0,0,0-.43-4.88c-.22-2.06-.54-6-.87-11.71s-.54-9.44-.76-10.74a16.72,16.72,0,0,0-1-4.34,12.3,12.3,0,0,0-1.63-3.36,4,4,0,0,0-1.74-1.41c-.54-.22-1.41,0-2.6.65a2.9,2.9,0,0,0-1.73,2.71,23.37,23.37,0,0,0,.21,3,3.24,3.24,0,0,0,2,2.28,5.2,5.2,0,0,1,2.38,3.47,37.93,37.93,0,0,1,.65,8.67c0,4.12.11,7.05.22,8.68s.22,3.15.32,4.34a5.71,5.71,0,0,1-.43,2.93,2.82,2.82,0,0,1-2.39,1.19c-1.19.11-1.95.11-2.27.11h-.65a11.45,11.45,0,0,1-3.8-.54A4.76,4.76,0,0,1,643,50.66a17.91,17.91,0,0,0,.32-3.25V45.57a17.13,17.13,0,0,0-.54-2.17A14.43,14.43,0,0,0,641,39.93c-.76-1.09-1.52-1.63-2.28-1.63h-1.19a15.19,15.19,0,0,0-1.3,1.19,4,4,0,0,0-1.2,2.93,13.08,13.08,0,0,0,.22,2.5c.11.54.54.86,1.19,1.08a2.26,2.26,0,0,1,1.41,1.41,7.44,7.44,0,0,1,.33,1.52c0,.22-.33.65-1,1.08a2.12,2.12,0,0,1-2,.33A12,12,0,0,1,633,49.15a3,3,0,0,1-1.52-2.5c-.11-1.08-.32-1.73-.65-1.84a1.18,1.18,0,0,0-.87,0,3.61,3.61,0,0,0-1.3,1.3,5.47,5.47,0,0,0-1,2,3.53,3.53,0,0,1-1.09,1.74,2.2,2.2,0,0,1-1.62,1,4.85,4.85,0,0,1-2.07-.54,11.82,11.82,0,0,1-2.06-1.08A6.7,6.7,0,0,1,619.35,47c-.55-1.09-1.09-1.63-1.52-1.63H617a2.36,2.36,0,0,0-.87.65A6.7,6.7,0,0,0,615,47.74a6.11,6.11,0,0,1-1.41,2.16,5.86,5.86,0,0,1-2.28,1.74,6.94,6.94,0,0,1-2.82.43c-.76-.1-1.63-.32-2.6-.54a8.89,8.89,0,0,1-3.69-1.63,13.18,13.18,0,0,1-1.63-2.16,4.64,4.64,0,0,1-.86-2.28c0-.65-.11-1.41-.11-2.06s0-2.28,0-4.77a35.48,35.48,0,0,0,0-5c-.11-.87-.11-1.63-.22-2.28s-.11-1.41-.22-2.28-.32-2.49-.65-4.66a27.29,27.29,0,0,0-1.19-5.1,18,18,0,0,0-.76-1.84,1,1,0,0,1-.22-.76,2.51,2.51,0,0,0-.43-1.09c-.22-.32-.33-.54-.54-.87a5,5,0,0,0-1.3-1,2,2,0,0,0-1.52-.44,5.55,5.55,0,0,0-1.74,1.85,5.14,5.14,0,0,0-1.08,2.71v1.95A3.38,3.38,0,0,0,590.93,22a10.83,10.83,0,0,1,2.06,2.5,23.28,23.28,0,0,1,1.52,3.58,9.87,9.87,0,0,1,.76,2.81c0,.44.22,2.17.54,5.32a36,36,0,0,1,.22,6.51,8.91,8.91,0,0,0-.11,2.27,2.46,2.46,0,0,1,.11.76,13.32,13.32,0,0,1-1.52,2.28,9.41,9.41,0,0,0-2,3,13.8,13.8,0,0,0-.44,2.82,5.1,5.1,0,0,0,.22,2.49,1.24,1.24,0,0,0,1.19.65,6.12,6.12,0,0,0,1.52-.11,6,6,0,0,0,1.85-1,4.75,4.75,0,0,1,1.73-1,15,15,0,0,1,3.58,2,10.39,10.39,0,0,0,5.1,2h2.93V58.8c1.84-.22,3.9-1.41,6-3.47a12.7,12.7,0,0,0,1.3,1.41,7,7,0,0,0,3.36,1.52A8.21,8.21,0,0,0,624.33,58.8Z"/><path class="cls-1" d="M666,23a3.36,3.36,0,0,1,1.09,2.49c.11,1.3.21,3.15.21,5.53a42,42,0,0,0,.11,4.56,10.26,10.26,0,0,1,0,1.84v2.5c0,1.08.11,3,.22,6s0,4.77-.33,5.64a5.44,5.44,0,0,0-.43,1.85V56.3c0,.44.65,1.09,2.06,1.74a8.53,8.53,0,0,0,3.47,1A1.55,1.55,0,0,0,674,57.61a9,9,0,0,0,.32-1.85,5.24,5.24,0,0,0-.1-1.19,13.37,13.37,0,0,0-1.31-2.71,10.24,10.24,0,0,1-1.51-3.47,11.48,11.48,0,0,1-.33-2.17,15.09,15.09,0,0,0-.11-2.06c-.11-.87-.11-2.61-.11-5.1V33.2a17.58,17.58,0,0,0-.11-2.82c0-.43-.1-.86-.1-1.3V25.61a14.48,14.48,0,0,0-.11-2.39,8,8,0,0,1-.11-1.62V18.67a4.19,4.19,0,0,0-1.84-3.47,5.5,5.5,0,0,0-2.93-1.3c-.65,0-1.3.76-1.74,2.38a24.71,24.71,0,0,0-.76,2.82,5.08,5.08,0,0,0,1,2A5.45,5.45,0,0,0,666,23Z"/><path class="cls-1" d="M692.66,57.28c.11.43,1,.87,2.61,1.3a12.62,12.62,0,0,0,3,.76h1.3a1.42,1.42,0,0,0,1.09-.43,4.56,4.56,0,0,1,2.49-.44c1.41,0,2.61-1.19,3.58-3.68s1.63-3.69,1.85-3.69a.56.56,0,0,1,.54.43c.11.22.32.87.76,1.95a11.6,11.6,0,0,0,1.62,2.82,5.12,5.12,0,0,0,2.93,2.06,15.6,15.6,0,0,0,5.1.55V59c.11,0,.22-.11.33-.11h1.3v-.33a13.79,13.79,0,0,0,4.12-1.95c3.14-2.93,4.88-4.34,5.1-4.34h.1a10.94,10.94,0,0,0,1.74,3c1.74,2.38,4.66,3.58,8.89,3.58h2.06a10.5,10.5,0,0,0,6.62-2.17c4.55-3.36,6.83-8.24,6.83-14.75a12,12,0,0,0-.65-4.34c-2.38-4.77-4.34-7.16-5.85-7.16h-.66c-1.41,0-2.49,1.63-3.36,4.77a4.42,4.42,0,0,0,.76,2.39c3.47,2.17,5.21,4.55,5.21,7.27a7.83,7.83,0,0,1-1.3,4.77c-.55,1-1.74,1.73-3.8,2.38a29.83,29.83,0,0,1-5.1.55,8,8,0,0,1-3.58-.87A7.11,7.11,0,0,1,735,47.84a6.77,6.77,0,0,0,.54-2.6c-.1-.65-.54-1-1.41-1H733c-1.19,0-3.15,1.08-5.86,3.25-3,3.25-5.53,4.88-7.7,5h-.65a15.16,15.16,0,0,1-2.06-.65,5.14,5.14,0,0,1-1.63-.87,15.94,15.94,0,0,1-1.73-3.36A14.42,14.42,0,0,1,712,42.42a3.41,3.41,0,0,0-1.3-3c-.87-.54-1.3-1-1.3-1.08s.21-1.19.54-3,.54-2.82.43-2.82-.11-.21,0-.76a24.58,24.58,0,0,0,0-4.23c-.11-2.27-.65-3.57-2-4a9.1,9.1,0,0,0-2.93-.65c-.76,0-1.3,1-1.73,3s-.66,3.14-.66,3.36a1.3,1.3,0,0,0,.44.87A15.66,15.66,0,0,0,705,31.68a4.09,4.09,0,0,1,1.19,3,6.58,6.58,0,0,1-1.63,4,15.3,15.3,0,0,1-5.09,3.91A44.06,44.06,0,0,0,695.16,45a15.09,15.09,0,0,1-1.74,1.09c-.54.32-1,1.41-1.3,3.47a40.06,40.06,0,0,0-.54,4.12,4.48,4.48,0,0,0,.54,1.95C692.34,56.41,692.55,57,692.66,57.28Zm6.73-6.83c.86-.22,2.17-1.2,3.9-3s2.6-2.71,2.71-2.49a.53.53,0,0,1,.22.43,13.24,13.24,0,0,1-.54,1.63,24.58,24.58,0,0,0-1.09,3c-.32,1.09-1.3,1.63-2.71,1.63h-2.82c-.43,0-.76-.11-.76-.32s-.11-.33-.11-.44C698,50.77,698.52,50.66,699.39,50.45Z"/><path class="cls-1" d="M700.69,20.51h1.19a2.94,2.94,0,0,0,1.41-.43,8.27,8.27,0,0,0,1.85-1.63c.65-.76,1-1.08,1.08-.87s.33.44.54.76a4.72,4.72,0,0,0,.65.76,1.45,1.45,0,0,0,1.09.33H710a4.76,4.76,0,0,0,2.17-.87c.86-.65,1.3-1.08,1.3-1.63V15.74a4.24,4.24,0,0,0-1-1.84c-.65-.87-1.19-1.3-1.63-1.3h-1.73a2.64,2.64,0,0,0-1.95.86,7.26,7.26,0,0,0-1.31,1.85c-.32.65-.54.76-.75.21a3.06,3.06,0,0,0-1-1.3,2.53,2.53,0,0,0-1.52-.43h-1.52a5,5,0,0,0-1.84.54c-.76.43-1.09.87-1.09,1.52v1.84a2.82,2.82,0,0,0,1,1.85C699.82,20.19,700.25,20.51,700.69,20.51Z"/><path class="cls-1" d="M738.11,63.9h-.87A5.27,5.27,0,0,0,732.36,67l.43,1.85a5.51,5.51,0,0,0,4,1.84c3.25-.54,4.88-1.84,4.88-3.69l-.55-2.17A4.19,4.19,0,0,0,738.11,63.9Z"/><path class="cls-1" d="M723.57,64.22c-2.27,1-3.36,2-3.36,2.71v1.74c1.3,1.41,2.39,2.17,3.47,2.17h.65c3.36-.55,5-1.63,5-3V67A4.3,4.3,0,0,0,725,63.9Z"/><path class="cls-1" d="M753.29,64.55v-1.3q-1.95-2.61-3.58-2.61c-2.06,0-3.58,1.41-4.34,4.12V65c.33,1.3.76,2.06,1.3,2.28a3.37,3.37,0,0,0,2,1.19C750.69,68.45,752.21,67.15,753.29,64.55Z"/><path class="cls-1" d="M742.66,80.82a2,2,0,0,0,1.09,2.06,7.26,7.26,0,0,0,3.36,1c1.3.11,2.49.11,3.36.11s2.6-.22,5.21-.54a33.62,33.62,0,0,0,9.11-2.71A44.66,44.66,0,0,0,774.33,75c2.82-2.39,4.88-4.56,6-6.73a26.79,26.79,0,0,0,2.06-4.66,27.88,27.88,0,0,0,.43-9,20.86,20.86,0,0,0-.87-4.66,33.57,33.57,0,0,0-1.62-3.69,10.36,10.36,0,0,0-2.82-3.36,5.4,5.4,0,0,0-4.34-1.09,7.1,7.1,0,0,0-4.45,2.28A28,28,0,0,0,766,47.52a14.51,14.51,0,0,0-1.3,3.25,8.44,8.44,0,0,0-.22,3.26,8.44,8.44,0,0,0,1.41,3A5.36,5.36,0,0,0,769,59.12a9.2,9.2,0,0,0,2.27.55h1.63a6.66,6.66,0,0,0,2.28-.33,13.6,13.6,0,0,0,2.06-1.08,28.54,28.54,0,0,1-.43,3.47,11.49,11.49,0,0,1-2,4.55,19.16,19.16,0,0,1-4.33,4.77,39.74,39.74,0,0,1-6.3,4.23,33.17,33.17,0,0,1-16.48,4.13C744.51,79.62,742.88,80,742.66,80.82Zm32.65-27.66a1.29,1.29,0,0,1-.55.54,2.39,2.39,0,0,1-1.4.33,3.64,3.64,0,0,1-1.63-.22,3.87,3.87,0,0,1-1.09-.76,1.75,1.75,0,0,1-.43-1.3,7.26,7.26,0,0,1,.65-1.74,1.64,1.64,0,0,1,1.52-1,3.14,3.14,0,0,1,2,.86,3.65,3.65,0,0,1,1.09,2A3.35,3.35,0,0,1,775.31,53.16Z"/><path class="cls-1" d="M828.67,39a3.52,3.52,0,0,0,2.71-1.19,3.84,3.84,0,0,0,1-2.5,2.81,2.81,0,0,0-3.15-3.14,3.52,3.52,0,0,0-2.6,1,3.08,3.08,0,0,0-1,2.17,3.48,3.48,0,0,0,1.09,2.5C827.48,38.52,828,39,828.67,39Z"/><path class="cls-1" d="M879.64,54.24a7.78,7.78,0,0,0,.55-3.25,31.39,31.39,0,0,0-.44-4.88c-.22-2.06-.54-6-.87-11.71s-.54-9.44-.76-10.74a16.32,16.32,0,0,0-1-4.34A12,12,0,0,0,875.52,16a3.92,3.92,0,0,0-1.73-1.41c-.55-.22-1.41,0-2.61.65a2.9,2.9,0,0,0-1.73,2.71,23.2,23.2,0,0,0,.22,3,3.2,3.2,0,0,0,2,2.27A5.24,5.24,0,0,1,874,26.7a37.93,37.93,0,0,1,.65,8.67c0,4.12.11,7.05.22,8.68s.22,3.14.33,4.34a5.74,5.74,0,0,1-.44,2.92,2.8,2.8,0,0,1-2.38,1.2c-1.2.11-2,.11-2.28.11h-2.28a6.12,6.12,0,0,1-3.25-.87,10.6,10.6,0,0,0-.76-3c-.44-1-.87-1.84-1.3-2.6a7.87,7.87,0,0,0-1.85-2,5.72,5.72,0,0,0-2.38-1.3,10.61,10.61,0,0,0-2.61-.33,7.4,7.4,0,0,0-3.36,1.41,7.28,7.28,0,0,0-2.93,3.36,22.8,22.8,0,0,0-1.19,3.47,2,2,0,0,1-1.73,1.74c-.87.11-1.52.21-2,.21h-2.27a7.91,7.91,0,0,1-3.58-.86A7.13,7.13,0,0,1,835.28,48a6.82,6.82,0,0,0,.55-2.6c-.11-.65-.55-1-1.41-1h-.65q-1.8,0-5.86,3.26c-2.93,3.14-5.42,4.77-7.48,5h-1a1.85,1.85,0,0,1-1.41-.55,3.84,3.84,0,0,1-.33-2c0-1,0-1.52-.1-1.52s-.11-.32-.11-.76-.33-.76-.87-1-1.84-.54-3.69-1.19-3.58-1.09-4.88-1.52a10.56,10.56,0,0,1-3.47-1.74c-1-.76-1.73-1.41-2.49-2s-1.41-1.09-2-1.52-1.3-1.3-2.27-2.28a9.72,9.72,0,0,1-2.06-3.58,20.71,20.71,0,0,1-.87-3.25,18.12,18.12,0,0,1-.11-2.49,9.55,9.55,0,0,1,.43-2.5,6.72,6.72,0,0,1,.87-2,6.65,6.65,0,0,1,1-1.3c.32-.33,1.08-1.09,2.17-2.06a15.09,15.09,0,0,1,2-1.52,2.69,2.69,0,0,0,1-.87,3,3,0,0,0,.76-1.73c.11-.66.22-1.09.22-1.31a.93.93,0,0,0-.22-.86,1.09,1.09,0,0,0-.86-.55,2.11,2.11,0,0,0-1.31.76c-.54.55-1.41,1.3-2.71,2.39a13,13,0,0,0-3.14,3.8,25.2,25.2,0,0,0-1.52,3.14c-.22.65-.43,1.3-.54,1.74s-.33,1.19-.54,2.27A15.32,15.32,0,0,0,792,30v2.28a19,19,0,0,0,.22,2.06,11.38,11.38,0,0,0,.65,2.6,29,29,0,0,0,1.19,2.71,25.42,25.42,0,0,0,4.12,4.77c2.28,2.28,3,3.47,2.39,3.58a11.6,11.6,0,0,1-2,.11,39.84,39.84,0,0,1-4.45-.43,38.49,38.49,0,0,0-4.12-.44,2.21,2.21,0,0,0-1.3.55,3.65,3.65,0,0,0-1,1.84,22.38,22.38,0,0,0-.54,2.28,3.76,3.76,0,0,0,.11,2,3.51,3.51,0,0,0,.86,1.41c.33.32.55.54.55.87s1,.54,2.82,1a18.64,18.64,0,0,0,3.68.55,3,3,0,0,0,1.63-.44,5.79,5.79,0,0,0,1.84-1.63c.76-.86,1.2-1.19,1.63-1.19s1.74,0,4,.11h7c.44,0,1.31.87,2.5,2.49a4.89,4.89,0,0,0,4,2.39h3.25v-.22a12.12,12.12,0,0,0,4.56-2.06c3.15-2.93,4.88-4.34,5.1-4.34H831a10.7,10.7,0,0,0,1.73,3c1.74,2.28,4.56,3.47,8.57,3.58v.11h1.41a14.77,14.77,0,0,0,6.94-1.3,10,10,0,0,0,1.95,1.73,5,5,0,0,0,2.5,1,12.73,12.73,0,0,0,3.47-.11A9.88,9.88,0,0,0,862.29,58a7.9,7.9,0,0,0,4.45,1.3H869a22.59,22.59,0,0,0,3.58-.32,12.07,12.07,0,0,0,4.23-1.74A8.63,8.63,0,0,0,879.64,54.24Zm-21-.76a3,3,0,0,1-1.19.55,4.13,4.13,0,0,1-2.17-.33,2.46,2.46,0,0,1-1.52-1.41,3,3,0,0,1-.22-1.63,2.3,2.3,0,0,1,.22-1.08,1.12,1.12,0,0,1,.65-.54,2.71,2.71,0,0,1,1.09-.22,3.85,3.85,0,0,1,1.84.76,5.57,5.57,0,0,1,2,3.14C858.93,53.05,858.71,53.38,858.6,53.48Z"/><path class="cls-1" d="M886.69,23a3.33,3.33,0,0,1,1.09,2.49c.11,1.3.21,3.15.21,5.53a42,42,0,0,0,.11,4.56,10.26,10.26,0,0,1,0,1.84,18.45,18.45,0,0,0,0,2.5c0,1.08.11,3,.22,6s0,4.77-.33,5.64a5.44,5.44,0,0,0-.43,1.85V56.3c0,.44.65,1.09,2.06,1.74a8.53,8.53,0,0,0,3.47,1,1.55,1.55,0,0,0,1.63-1.41,10.3,10.3,0,0,0,.32-1.85,5.24,5.24,0,0,0-.1-1.19,13.37,13.37,0,0,0-1.31-2.71,10.24,10.24,0,0,1-1.51-3.47,11.48,11.48,0,0,1-.33-2.17,15.09,15.09,0,0,0-.11-2.06c-.11-.87-.11-2.61-.11-5.1V33.2a19.33,19.33,0,0,0-.1-2.82c0-.43-.11-.86-.11-1.3V25.61a14.48,14.48,0,0,0-.11-2.39,8,8,0,0,1-.11-1.62V18.67a4.19,4.19,0,0,0-1.84-3.47,5.5,5.5,0,0,0-2.93-1.3c-.65,0-1.3.76-1.74,2.38a24.71,24.71,0,0,0-.76,2.82,5.08,5.08,0,0,0,1,2A5.45,5.45,0,0,0,886.69,23Z"/><path class="cls-1" d="M20.38,165.4s22-2,56.34-15.14A288.24,288.24,0,0,0,180.36,82.63c13.83-14.22,17.78-21.48,17.78-21.48a21.92,21.92,0,0,1,5.64,9.66S142.49,155.28,24.17,171.59c0,0,83.54-4.33,134.86-46.37s47.22-49,47.22-49a100.08,100.08,0,0,1,3.87,11s-13.84,22-58.28,52.25c-41.27,28.28-112.52,35.78-125.27,35.7,0,0,77.2,2.24,124.35-26.12,45.75-27.59,59.81-45.83,61.67-49.15,0,0,1.08,7.34,1.47,13.52,0,0-37.79,37.41-79.76,51.94C90.4,182,41.64,178.39,29.43,179.08c0,0,25,4,59.5.47a231.74,231.74,0,0,0,93.83-31.23c21.25-12.52,29.13-20,30.83-21.48,0,0-1.39,11.44-3.71,18.55,0,0-39.49,23.8-67.62,32.22-24.19,7.27-65.07,11.6-107.12,8.12A106,106,0,0,1,20.38,165.4Z"/><path class="cls-2" d="M35.84,186.58s46.45,12.6,94,2.32c35.47-7.65,65.61-22.42,77.36-33.62,0,0-15.92,50.39-77.05,61.9C71,228.39,35.84,186.58,35.84,186.58Z"/><path class="cls-2" d="M190,40.05C152.46,1.64,100.84-5.78,53.85,22,7.24,49.71-3,104.89,7.86,149.64l.24,1.16C-11.07,96,4.15,48.63,50,17.79,103.54-17.76,162.82,5.35,190,40.05Z"/><path class="cls-2" d="M165.52,51C138.47,23.35,100.76,18.64,66,39.58c-34.47,20.79-42.74,61.21-35.32,93.75.08.31.08.54.16.85-13.37-39.8-1.63-74.5,32.38-97.69C102.92,9.83,146.05,26,165.52,51Z"/><path class="cls-2" d="M148.44,66.4c-19.16-19.55-45.75-23-70.17-8.34-24.19,14.52-29.91,43-24.58,66,0,.23.08.38.08.61-9.51-28-1.39-52.55,22.49-68.7C104.24,37.19,134.69,48.7,148.44,66.4Z"/><path class="cls-2" d="M125.18,81.47c-9.58-9.74-22.72-11.67-34.62-4.56S76.1,98,78.89,109.37a.51.51,0,0,0,.07.31c-4.86-13.91-1-26,10.67-33.85C103.23,66.79,118.3,72.66,125.18,81.47Z"/><path class="cls-3" d="M420.31,181.09c0-3.14-.95-4.17-3.58-4.68v-2.29c1.43,0,4.13.51,6.08.51,2.27,0,4.65-.51,10.61-.51,10.57,0,16.05,6.64,16.05,14.81,0,10.29-7.63,16.51-18,16.51-2.54,0-4.69-.51-8.1-.51a40.88,40.88,0,0,0-6.68.51v-2.3c2.63-.51,3.58-1.53,3.58-4.68Zm6.59,16.77c0,3.24,1.67,5.11,5.09,5.11,5.17,0,10.41-4.6,10.41-12,0-8.17-4-14.39-11.92-14.39a17.76,17.76,0,0,0-3.58.51Z"/><path class="cls-3" d="M463.81,184.5A9.84,9.84,0,0,1,474,194.71c0,6.22-4.13,11-11.52,11a9.84,9.84,0,0,1-10.17-10.21C452.29,189.27,456.42,184.5,463.81,184.5Zm-.16,18.89c2.54,0,4.29-2.38,4.29-6.29,0-6.22-2.54-10.3-5.32-10.3-2.54,0-4.29,2.38-4.29,6.3C458.33,199.31,460.87,203.39,463.65,203.39Z"/><path class="cls-3" d="M495,200.42c-2.43,3.19-4.89,5.27-9,5.27a9.1,9.1,0,0,1-9.46-9.53,11.39,11.39,0,0,1,11.36-11.66c4,0,5.49,2,5.49,3.62a2.19,2.19,0,0,1-2.19,2.34c-2.58,0-2.66-3.66-5.16-3.66-2.9,0-4.73,3.32-4.73,6.42a8.17,8.17,0,0,0,7.83,8.22,6.2,6.2,0,0,0,4.64-2.22Z"/><path class="cls-3" d="M499.56,198.29a5.41,5.41,0,0,0,5.33,5.36c1.67,0,2.86-1,2.86-2.17,0-4.3-9.86-4-9.86-10.94,0-3.06,2.71-6,7.16-6,2.74,0,4,.77,4.76.77a1,1,0,0,0,1-.77H512a41.21,41.21,0,0,0-.72,6H510a4.35,4.35,0,0,0-4.45-4.17c-1.94,0-2.86,1-2.86,2,0,3.28,9.86,3.7,9.86,10.64,0,4-3.26,6.68-7.87,6.68-2.58,0-4-.76-4.85-.76a1.78,1.78,0,0,0-1.27.76H497.1c.95-2,.55-6.55,1.19-7.57Z"/><path class="cls-3" d="M532.14,181.09c0-3.14-.95-4.17-3.58-4.68v-2.29h.08c.8,0,1.67.12,3.14.25s3.54.26,6.72.26c11.16,0,11.6,0,14.46-.94a13.71,13.71,0,0,0-.32,3.23c0,1.07.16,1.75.16,2.39a7.63,7.63,0,0,1-.32,2.13H551c0-3.49-2.86-4.35-8.18-4.35a23.84,23.84,0,0,0-4.06.35v10.63h5c2.86,0,4.13-.93,4.13-3.74h1.75a8,8,0,0,1,.08,1.36c0,1.23-.16,2.47-.16,3.66s.16,2.43.16,3.66a8,8,0,0,1-.08,1.36h-1.75c0-2.89-1.27-3.83-4.13-3.83h-5v8c0,2.73,1,3.92,4.61,3.92,4.41,0,8.74-1.28,9.38-6h1.83c0,4-1,3.74-1,9.78-1.44-.85-2.95-1.27-6.28-1.27h-12.8a19.88,19.88,0,0,0-5.88.51v-2.3c2.63-.51,3.58-1.53,3.58-4.68Z"/><path class="cls-3" d="M578.38,187.05c-2,.09-3.1.85-4.84,2.9l-3.42,3.91,4.65,5.92c1.51,1.91,2.5,3.27,3.93,3.36v2.13a48.29,48.29,0,0,0-11.44,0v-2.13c1.19-.09,1.91-.34,1.91-1.11s-.72-1.44-3.5-4.93c-2.62,3.49-3.26,3.53-3.26,4.85,0,.68.4,1.1,1.75,1.19v2.13a24.83,24.83,0,0,0-8.19,0v-2.13c1.67-.09,2.75-.81,5-3.58l3.38-4.08-4.29-5.62c-1.79-2.34-2.63-2.72-3.82-2.81v-2.13a44.42,44.42,0,0,0,11.13,0v2.13c-1.19,0-1.67.26-1.67.85,0,.9.71,1.28,3.26,4.43,2.38-2.89,2.86-3.66,2.86-4.26s-.32-1-1.59-1v-2.13a23.61,23.61,0,0,0,8.1,0Z"/><path class="cls-3" d="M592.33,215.31a54,54,0,0,0-6.32-.51,54.56,54.56,0,0,0-6.16.51v-2.13c1.75-.08,2.78-.85,2.78-4.93V192.59c0-2.81-.56-3.83-2.78-3.92v-2.13a15.07,15.07,0,0,0,7-2h1.59a8.94,8.94,0,0,0-.16,1.49v1.49h.08a7.94,7.94,0,0,1,6-3c5,0,8.35,4.68,8.35,9.92,0,6.25-3.66,11.27-9.94,11.27a10.48,10.48,0,0,1-4.37-1V208c0,3.83.88,5,3.9,5.19Zm-3.9-13.79a5,5,0,0,0,3.94,1.87c2.18,0,4.57-1.87,4.57-6.38,0-4.08-1.91-8.68-5.45-8.68-2.1,0-3.06,1.53-3.06,4Z"/><path class="cls-3" d="M605.11,203.14c2-.09,2.39-.72,2.39-5.7V180.58c0-3.74-.48-4.51-2.39-4.51V174c2.55-.34,5.89-1.45,6.84-2.9h1.67a31.17,31.17,0,0,0-.32,4.43V200c0,2.47.64,3.19,2.66,3.19v2.13c-1.79-.17-3.45-.34-5.4-.34s-3.62.17-5.45.34Z"/><path class="cls-3" d="M629.31,184.5a9.84,9.84,0,0,1,10.17,10.21c0,6.22-4.13,11-11.52,11a9.84,9.84,0,0,1-10.17-10.21C617.79,189.27,621.92,184.5,629.31,184.5Zm-.16,18.89c2.54,0,4.29-2.38,4.29-6.29,0-6.22-2.54-10.3-5.32-10.3-2.54,0-4.29,2.38-4.29,6.3C623.83,199.31,626.37,203.39,629.15,203.39Z"/><path class="cls-3" d="M642,203.14c1.59-.26,2.54-1.19,2.54-3.75v-7.91c0-1.87-.95-2.81-2.54-2.89v-2.13a12.68,12.68,0,0,0,6.84-2h1.58a7.79,7.79,0,0,0-.31,1.83v1.83l.08.08c1.35-2,3-3.74,5.48-3.74a3,3,0,0,1,3.18,3.15,3.41,3.41,0,0,1-3.22,3.57c-2,0-1.71-2.21-3.58-2.21a2.33,2.33,0,0,0-1.71,1.7v8.34c0,3,1.28,3.83,3.58,4.09v2.13c-2-.17-4-.34-6-.34s-4,.17-6,.34Z"/><path class="cls-3" d="M679,199.91c-2.23,3.91-4.93,5.78-9.26,5.78-5,0-9.3-3.95-9.3-9.87s4.18-11.32,10.37-11.32c5.13,0,7.91,3,7.91,8.43V194H665.54c.24,4.51,2.54,7.41,6.87,7.41a6.55,6.55,0,0,0,5.29-2.64Zm-5.36-8.18c-.16-3.06-1.28-4.93-3.9-4.93-2.14,0-4.13,2.85-4.13,4.93Z"/><path class="cls-3" d="M681.71,203.14c1.59-.26,2.54-1.19,2.54-3.75v-7.91c0-1.87-1-2.81-2.54-2.89v-2.13a12.65,12.65,0,0,0,6.83-2h1.59a7.33,7.33,0,0,0-.32,1.83v1.83l.08.08c1.35-2,3-3.74,5.49-3.74a3,3,0,0,1,3.17,3.15,3.41,3.41,0,0,1-3.21,3.57c-2,0-1.71-2.21-3.58-2.21a2.31,2.31,0,0,0-1.71,1.7v8.34c0,3,1.27,3.83,3.58,4.09v2.13c-2-.17-4-.34-6-.34s-4,.17-6,.34Z"/><path class="cls-1" d="M731.89,193.78c-3.24,0-2.18,4-5.69,7.07.75,1.25,1.57,2.16,2.93,2.16a2.84,2.84,0,0,0,2.07-1.54l.85.63c-.82,1.91-2.34,3.82-4.46,3.82a4.72,4.72,0,0,1-4.21-2.4,10.08,10.08,0,0,1-6.3,2.4c-4.28,0-6.09-2.17-6.09-5.33,0-2.88,2.08-5.1,5.43-6.58a6.19,6.19,0,0,1-1-3,5.28,5.28,0,0,1,5.05-5.15c2.5,0,4,1.37,4,3.19a2,2,0,0,1-1.89,2.11,1.63,1.63,0,0,1-1.57-1.54c.64,0,.85-.17.85-.77a1.58,1.58,0,0,0-1.65-1.34,2.08,2.08,0,0,0-2.18,2.11c.06,2.45,4,3.76,7.5,10.05a6.19,6.19,0,0,0,1.86-4.18c0-1-.42-1.6-2.28-1.66v-1.53a26.44,26.44,0,0,0,3.66.22,19.43,19.43,0,0,0,3.14-.22Zm-17.28,5.3a4.35,4.35,0,0,0,4.25,4.39,5.65,5.65,0,0,0,3.73-1.14,52.45,52.45,0,0,0-5.51-7.21A4.74,4.74,0,0,0,714.61,199.08Z"/><path class="cls-3" d="M777.16,205.44a50.94,50.94,0,0,0-14.38,0v-2.3c2.62-.26,3.41-1,3.41-2.3s-.24-2.21-2.38-7.23c-1.91-.13-3.46-.26-5.41-.26-1.7,0-3.37.09-5.08.17-1.75,4.43-2.23,5.28-2.23,6.47,0,2.21,1.87,3.06,3.74,3.15v2.3a31.94,31.94,0,0,0-11.37,0v-2.3c2.71-.77,4-1.45,8.19-11.83,3.81-9.36,5.09-12,5.09-13.28A1.49,1.49,0,0,0,755,176.5v-2.38a17.65,17.65,0,0,0,2.5.08c2.82,0,4.69-1.79,7.31-1.79a5.78,5.78,0,0,0-.24,1.92c0,3.45,1,4.72,7.39,22.34,1.75,4.81,2.47,6,5.17,6.47Zm-22.73-14.73c1.47.09,3.42.17,5.29.17a32.1,32.1,0,0,0,3.21-.17l-4-11.74Z"/><path class="cls-3" d="M802.56,205.27c-1.75-.17-3.54-.34-5.29-.34s-3.53.17-5.36.34v-2.13a2.22,2.22,0,0,0,2.22-2.55v-7.15c0-3.75-1.43-5-3.41-5-1.08,0-3.26,1.48-3.26,2.29v9c0,2.56.79,3.15,2.3,3.41v2.13c-1.82-.17-3.53-.34-5.28-.34s-3.62.17-5.41.34v-2.13c1.87-.09,2.59-1.11,2.59-3.32v-8.68c0-1.79-.88-2.47-2.63-2.55v-2.13a15.43,15.43,0,0,0,6.92-2h1.67a8.94,8.94,0,0,0-.16,1.49v1.66c1.71-1.7,3.65-3.15,6.47-3.15,3.54,0,6,2.64,6,7.15V200c0,2,.8,3.06,2.63,3.15Z"/><path class="cls-3" d="M824.72,202.71a7.15,7.15,0,0,1-5.36,3c-2,0-2.78-1.1-3.54-2.89a11.27,11.27,0,0,1-7.35,3.06c-2.58,0-4.25-1.7-4.25-4.55,0-4.3,4.85-7,11.76-8.3v-1.49c0-2.85-1.27-4.13-3.29-4.13-2.19,0-3.86,1.28-3.86,2.56a2,2,0,0,0,.4,1.19l-1.43,1.11-2.31-3.32c2.75-2.86,5.49-4.43,9.66-4.43,4.41,0,6.4,2.72,6.4,7.19,0,2.56-.48,5.15-.48,7.7,0,2.13.48,2.73,1.27,2.73a2,2,0,0,0,1.59-.77ZM812,202.54c1.91,0,4-1.1,4-7.36-2.94.72-6.2,1.41-6.2,4.81C809.78,201.69,810.42,202.54,812,202.54Z"/><path class="cls-3" d="M826.31,203.14c2-.09,2.38-.72,2.38-5.7V180.58c0-3.74-.47-4.51-2.38-4.51V174c2.54-.34,5.88-1.45,6.83-2.9h1.67a31.17,31.17,0,0,0-.32,4.43V200c0,2.47.64,3.19,2.67,3.19v2.13c-1.79-.17-3.46-.34-5.41-.34s-3.61.17-5.44.34Z"/><path class="cls-3" d="M837.15,184.92a44.42,44.42,0,0,0,11.13,0v2.13c-1.35,0-1.91.47-1.91,1.66,0,1.41.72,1.75,4.45,9.92,3.34-7.32,3.9-8.17,3.9-9.87,0-1-.72-1.71-2.7-1.71v-2.13a32.72,32.72,0,0,0,4.37.35,33.08,33.08,0,0,0,4.37-.35v2.13c-1.83,0-2.43.56-3.22,2.26l-8.15,17.36c-3.06,6.51-5.4,8.9-8.5,8.9a3.05,3.05,0,0,1-3.34-3,2.4,2.4,0,0,1,2.19-2.47c1.79,0,2.18,1.7,3.29,1.7,1.28,0,2.63-1.62,4.69-6.3l-7.55-16c-.95-2-1.66-2.47-3-2.47Z"/><path class="cls-3" d="M863.45,198.29a5.42,5.42,0,0,0,5.33,5.36c1.67,0,2.86-1,2.86-2.17,0-4.3-9.86-4-9.86-10.94,0-3.06,2.71-6,7.16-6,2.74,0,4,.77,4.77.77a1,1,0,0,0,.95-.77h1.27a40,40,0,0,0-.71,6h-1.36a4.34,4.34,0,0,0-4.45-4.17c-1.94,0-2.86,1-2.86,2,0,3.28,9.86,3.7,9.86,10.64,0,4-3.26,6.68-7.87,6.68-2.58,0-4-.76-4.85-.76a1.8,1.8,0,0,0-1.27.76H861c1-2,.56-6.55,1.19-7.57Z"/><path class="cls-3" d="M898,199.91c-2.23,3.91-4.93,5.78-9.26,5.78-5,0-9.3-3.95-9.3-9.87s4.18-11.32,10.37-11.32c5.13,0,7.91,3,7.91,8.43V194H884.55c.24,4.51,2.54,7.41,6.87,7.41a6.55,6.55,0,0,0,5.29-2.64Zm-5.37-8.18c-.15-3.06-1.27-4.93-3.89-4.93-2.14,0-4.13,2.85-4.13,4.93Z"/><path class="cls-4" d="M276,113.93c2.68.11,5.22.22,7.67.22s4.9-.11,7.68-.22v-8.77c0-4-1-5.37-4-6v-3a47.13,47.13,0,0,0,15.72,0v3c-3.05.66-4,2-4,6v22.36c0,4,1,5.37,4,6v3a47.13,47.13,0,0,0-15.72,0v-3c3.06-.66,4-2,4-6v-10c-2.78-.1-5.23-.21-7.68-.21s-5,.11-7.67.21v10c0,4,1,5.37,4,6v3a47.13,47.13,0,0,0-15.72,0v-3c3.05-.66,4-2,4-6V105.16c0-4-1-5.37-4-6v-3a47.13,47.13,0,0,0,15.72,0v3c-3,.66-4,2-4,6Z"/><path class="cls-4" d="M330.22,133c-1.52,2-3.6,3.83-6.24,3.83-2.36,0-3.23-1.42-4.11-3.72a12.53,12.53,0,0,1-8.56,3.94c-3,0-4.94-2.19-4.94-5.86,0-5.53,5.64-9,13.68-10.69v-1.91c0-3.68-1.48-5.32-3.84-5.32-2.54,0-4.48,1.64-4.48,3.29a2.74,2.74,0,0,0,.46,1.53l-1.66,1.43-2.68-4.28c3.19-3.67,6.38-5.69,11.23-5.69,5.13,0,7.45,3.5,7.45,9.26,0,3.28-.56,6.63-.56,9.91,0,2.74.56,3.51,1.48,3.51a2.22,2.22,0,0,0,1.85-1Zm-14.79-.22c2.22,0,4.62-1.43,4.62-9.48-3.42.93-7.21,1.81-7.21,6.19C312.84,131.68,313.58,132.78,315.43,132.78Z"/><path class="cls-4" d="M359.26,135c-3.15.33-5.92.77-7.68,1.86a5.7,5.7,0,0,1-2.22-3.5,10.65,10.65,0,0,1-7.72,3.5c-4.58,0-7-2.41-7-7.45V116.67c0-2.63-.83-3.29-2.77-3.4v-2.74h3.69a7.52,7.52,0,0,0,4.35-1h1.85c-.19,2-.37,4.93-.37,7v10.3c0,4.06,2.5,5.15,3.88,5.15,1.76,0,4-1.75,4-3.72V116.67c0-2.63-.83-3.29-2.78-3.4v-2.74h3.7a7.52,7.52,0,0,0,4.35-1h1.85c-.19,2-.37,4.93-.37,7v12.71c0,2.3.83,2.85,3.24,3Z"/><path class="cls-4" d="M370.9,100.23a20.46,20.46,0,0,0-.37,3.29v7H377v3.18h-6.47v12.82c0,4.28.93,5.26,2.78,5.26,1.48,0,2.77-1,4-2.85l1.39,1.65c-2.17,3.72-4.35,6.24-8.42,6.24-4.53,0-6.47-2.85-6.47-8.65V113.71H359.9v-3.18c5.18-.55,7.21-4.27,8.41-10.3Z"/><path class="cls-4" d="M425.45,108.67c0-6.36-2.86-9.87-9.24-9.87-7.4,0-12.95,5.81-12.95,17.38,0,10.13,5.27,17.7,13.32,17.7a12,12,0,0,0,11.09-8h2c-.51,3.84-2.22,7.29-2.22,11.07-1.3-.6-1.81-1.09-3.38-1.09a15.4,15.4,0,0,0-4.48.6,20.65,20.65,0,0,1-5.18.6c-11.19,0-19.42-7.45-19.42-19.51,0-13.36,8.69-21.91,19.93-21.91a22.25,22.25,0,0,1,6.79.82c1.62.27,2.82,1,4.35,1a7.67,7.67,0,0,0,3-.6c-1.29,2.79-.83,8.6-1.48,11.78Z"/><path class="cls-4" d="M447.55,109.55c6.93,0,11.83,5.58,11.83,13.15,0,8-4.8,14.13-13.4,14.13-6.94,0-11.84-5.58-11.84-13.15C434.14,115.68,439,109.55,447.55,109.55Zm-.19,24.33c3,0,5-3.07,5-8.11,0-8-3-13.27-6.2-13.27-3,0-5,3.07-5,8.11C441.17,128.62,444.13,133.88,447.36,133.88Z"/><path class="cls-4" d="M503.07,136.29a51.1,51.1,0,0,0-5.78-.44,61.39,61.39,0,0,0-6.33.44v-2.74c1.57-.22,2.5-1,2.5-3.4V119.41c0-2.85-1.58-4.82-3.93-4.82a4.83,4.83,0,0,0-3.57,2.19v12.71c0,3.07.65,3.95,2.5,4.06v2.74a53.58,53.58,0,0,0-5.92-.44,54.4,54.4,0,0,0-5.82.44v-2.74c1.57-.11,2.49-1.32,2.49-3.73V119.41c0-2.85-1.57-4.82-3.92-4.82a4.79,4.79,0,0,0-3.56,2.19v13c0,2.52.64,3.51,2.49,3.73v2.74a50.23,50.23,0,0,0-5.73-.44,64.7,64.7,0,0,0-6.47.44v-2.74c1.75-.22,3-1.32,3-4.28v-11.4c0-1.86-.74-3.06-3-3.06v-2.74c3.51-.33,6.47-1.32,8-2.52h1.94a11,11,0,0,0-.18,1.86V114c1.84-2.19,4.67-4.49,7.58-4.49s4.85,1.58,6,4.6c1.89-2.25,4.71-4.6,7.67-4.6,4.16,0,7.22,3.72,7.22,10.19V130c0,2.52.64,3.29,2.86,3.51Z"/><path class="cls-4" d="M545.88,136.29a51.1,51.1,0,0,0-5.78-.44,61,61,0,0,0-6.33.44v-2.74c1.57-.22,2.49-1,2.49-3.4V119.41c0-2.85-1.57-4.82-3.93-4.82a4.83,4.83,0,0,0-3.56,2.19v12.71c0,3.07.65,3.95,2.5,4.06v2.74a53.58,53.58,0,0,0-5.92-.44,54.4,54.4,0,0,0-5.82.44v-2.74c1.57-.11,2.49-1.32,2.49-3.73V119.41c0-2.85-1.57-4.82-3.93-4.82a4.83,4.83,0,0,0-3.56,2.19v13c0,2.52.65,3.51,2.5,3.73v2.74a50.4,50.4,0,0,0-5.73-.44c-2.13,0-4.3.22-6.48.44v-2.74c1.76-.22,3-1.32,3-4.28v-11.4c0-1.86-.74-3.06-3-3.06v-2.74c3.52-.33,6.48-1.32,8-2.52h1.94a10.88,10.88,0,0,0-.19,1.86V114c1.85-2.19,4.67-4.49,7.59-4.49s4.85,1.58,6,4.6c1.89-2.25,4.71-4.6,7.67-4.6,4.16,0,7.21,3.72,7.21,10.19V130c0,2.52.65,3.29,2.87,3.51Z"/><path class="cls-4" d="M548.28,133.55c2.31-.11,2.77-.93,2.77-7.35v-5.59c0-4.82-.55-5.8-2.77-5.8v-2.74a14.75,14.75,0,0,0,8-2.52h1.94a45.23,45.23,0,0,0-.37,5.69v14.2c0,3.18.74,4.11,3.19,4.11v2.74a60.26,60.26,0,0,0-6.38-.44,58.59,58.59,0,0,0-6.33.44Zm6.66-38.25c1.94,0,3.23,1.09,3.23,3.61a5.34,5.34,0,0,1-5,5c-1.94,0-3.24-1.1-3.24-3.62A5.34,5.34,0,0,1,554.94,95.3Z"/><path class="cls-4" d="M566.17,127.3c.09,4.27,3.23,6.9,6.19,6.9a3.07,3.07,0,0,0,3.33-2.79c0-5.54-11.46-5.1-11.46-14.08a7.91,7.91,0,0,1,8.32-7.78c3.19,0,4.62,1,5.55,1a1.14,1.14,0,0,0,1.11-1h1.47c-.64,3.12-.46,4-.83,7.78h-1.57c-.23-3.24-2.4-5.37-5.18-5.37-2.26,0-3.33,1.26-3.33,2.57,0,4.22,11.47,4.77,11.47,13.7,0,5.21-3.79,8.6-9.15,8.6-3,0-4.63-1-5.64-1a2,2,0,0,0-1.48,1H563.3c1.11-2.63.65-8.43,1.39-9.75Z"/><path class="cls-4" d="M587.57,127.3c.09,4.27,3.24,6.9,6.2,6.9a3.07,3.07,0,0,0,3.33-2.79c0-5.54-11.47-5.1-11.47-14.08a7.91,7.91,0,0,1,8.32-7.78c3.19,0,4.62,1,5.55,1a1.13,1.13,0,0,0,1.11-1h1.48c-.65,3.12-.46,4-.83,7.78h-1.58c-.23-3.24-2.4-5.37-5.17-5.37-2.27,0-3.33,1.26-3.33,2.57,0,4.22,11.46,4.77,11.46,13.7,0,5.21-3.79,8.6-9.15,8.6-3,0-4.62-1-5.64-1a2.06,2.06,0,0,0-1.48,1H584.7c1.11-2.63.65-8.43,1.39-9.75Z"/><path class="cls-4" d="M629.87,133c-1.52,2-3.6,3.83-6.24,3.83-2.36,0-3.24-1.42-4.11-3.72a12.55,12.55,0,0,1-8.56,3.94c-3,0-4.94-2.19-4.94-5.86,0-5.53,5.64-9,13.68-10.69v-1.91c0-3.68-1.48-5.32-3.84-5.32-2.54,0-4.48,1.64-4.48,3.29a2.74,2.74,0,0,0,.46,1.53l-1.66,1.43-2.68-4.28c3.19-3.67,6.38-5.69,11.23-5.69,5.13,0,7.44,3.5,7.44,9.26,0,3.28-.55,6.63-.55,9.91,0,2.74.55,3.51,1.48,3.51a2.22,2.22,0,0,0,1.85-1Zm-14.79-.22c2.22,0,4.62-1.43,4.62-9.48-3.42.93-7.21,1.81-7.21,6.19C612.49,131.68,613.23,132.78,615.08,132.78Z"/><path class="cls-4" d="M631.81,133.55c1.85-.33,3-1.54,3-4.83V118.53c0-2.41-1.11-3.62-3-3.72v-2.74a13.78,13.78,0,0,0,8-2.52h1.85a10.55,10.55,0,0,0-.37,2.35v2.36l.1.11c1.57-2.58,3.51-4.82,6.38-4.82,2.4,0,3.69,1.75,3.69,4,0,2.52-1.66,4.6-3.74,4.6-2.27,0-2-2.85-4.16-2.85a2.86,2.86,0,0,0-2,2.19v10.75c0,3.83,1.48,4.93,4.16,5.26v2.74c-2.31-.22-4.62-.44-6.93-.44s-4.63.22-6.94.44Z"/><path class="cls-4" d="M653.58,133.55c2.32-.11,2.78-.93,2.78-7.35v-5.59c0-4.82-.56-5.8-2.78-5.8v-2.74a14.78,14.78,0,0,0,8-2.52h1.94a43.41,43.41,0,0,0-.37,5.69v14.2c0,3.18.74,4.11,3.19,4.11v2.74a60.45,60.45,0,0,0-6.38-.44,58.78,58.78,0,0,0-6.34.44Zm6.66-38.25c1.94,0,3.24,1.09,3.24,3.61a5.34,5.34,0,0,1-5,5c-2,0-3.24-1.1-3.24-3.62A5.34,5.34,0,0,1,660.24,95.3Z"/><path class="cls-4" d="M692.37,133c-1.52,2-3.6,3.83-6.24,3.83-2.36,0-3.24-1.42-4.11-3.72a12.53,12.53,0,0,1-8.56,3.94c-3,0-4.94-2.19-4.94-5.86,0-5.53,5.64-9,13.68-10.69v-1.91c0-3.68-1.48-5.32-3.84-5.32-2.54,0-4.48,1.64-4.48,3.29a2.74,2.74,0,0,0,.46,1.53l-1.66,1.43L670,115.24c3.19-3.67,6.38-5.69,11.23-5.69,5.13,0,7.44,3.5,7.44,9.26,0,3.28-.55,6.63-.55,9.91,0,2.74.55,3.51,1.48,3.51a2.22,2.22,0,0,0,1.85-1Zm-14.79-.22c2.22,0,4.62-1.43,4.62-9.48-3.42.93-7.21,1.81-7.21,6.19C675,131.68,675.73,132.78,677.58,132.78Z"/><path class="cls-4" d="M703.93,100.23a19.39,19.39,0,0,0-.37,3.29v7H710v3.18h-6.47v12.82c0,4.28.92,5.26,2.77,5.26,1.48,0,2.78-1,4-2.85l1.39,1.65c-2.18,3.72-4.35,6.24-8.42,6.24-4.53,0-6.47-2.85-6.47-8.65V113.71h-3.89v-3.18c5.18-.55,7.22-4.27,8.42-10.3Z"/><path class="cls-4" d="M751.45,133c-1.52,2-3.6,3.83-6.24,3.83-2.36,0-3.24-1.42-4.11-3.72a12.55,12.55,0,0,1-8.56,3.94c-3,0-4.94-2.19-4.94-5.86,0-5.53,5.64-9,13.68-10.69v-1.91c0-3.68-1.48-5.32-3.84-5.32-2.54,0-4.48,1.64-4.48,3.29a2.74,2.74,0,0,0,.46,1.53l-1.66,1.43-2.68-4.28c3.19-3.67,6.38-5.69,11.23-5.69,5.13,0,7.44,3.5,7.44,9.26,0,3.28-.55,6.63-.55,9.91,0,2.74.55,3.51,1.48,3.51a2.22,2.22,0,0,0,1.85-1Zm-14.79-.22c2.22,0,4.62-1.43,4.62-9.48-3.42.93-7.21,1.81-7.21,6.19C734.07,131.68,734.81,132.78,736.66,132.78Z"/><path class="cls-4" d="M780.48,135c-3.14.33-5.91.77-7.67,1.86a5.7,5.7,0,0,1-2.22-3.5,10.65,10.65,0,0,1-7.72,3.5c-4.58,0-7-2.41-7-7.45V116.67c0-2.63-.84-3.29-2.78-3.4v-2.74h3.7a7.52,7.52,0,0,0,4.35-1H763c-.19,2-.37,4.93-.37,7v10.3c0,4.06,2.49,5.15,3.88,5.15,1.76,0,4-1.75,4-3.72V116.67c0-2.63-.83-3.29-2.78-3.4v-2.74h3.7a7.52,7.52,0,0,0,4.35-1h1.85c-.19,2-.37,4.93-.37,7v12.71c0,2.3.83,2.85,3.23,3Z"/><path class="cls-4" d="M810.76,115.57a6.94,6.94,0,0,0,4,1.32c3.88,0,5.55-3.35,5.55-7.67,0-4.88-2.87-9.87-7.22-9.87a12.53,12.53,0,0,0-3.51.66v26.85c0,4.71,1.48,6.47,5.36,6.69v3a67.68,67.68,0,0,0-9.34-.66,54.37,54.37,0,0,0-7.86.66v-3c3-.66,4.16-2,4.16-6V105.16c0-4-1.11-5.37-4.16-6v-3a54.37,54.37,0,0,0,7.86.66c3.61,0,6.2-.66,9.71-.66,7.86,0,12.86,3.29,12.86,11.9,0,7.72-5.55,12.22-11.66,12.22a10.8,10.8,0,0,1-5.73-1.76Z"/><path class="cls-4" d="M831.24,133.55c2.31-.11,2.77-.93,2.77-7.35V104.5c0-4.82-.55-5.8-2.77-5.8V96c3-.43,6.84-1.86,8-3.72h1.94a45.41,45.41,0,0,0-.37,5.7v31.51c0,3.18.74,4.11,3.1,4.11v2.74a57,57,0,0,0-6.29-.44,58.77,58.77,0,0,0-6.33.44Z"/><path class="cls-4" d="M869.66,133c-1.53,2-3.61,3.83-6.24,3.83-2.36,0-3.24-1.42-4.12-3.72a12.51,12.51,0,0,1-8.55,3.94c-3,0-5-2.19-5-5.86,0-5.53,5.64-9,13.68-10.69v-1.91c0-3.68-1.47-5.32-3.83-5.32-2.55,0-4.49,1.64-4.49,3.29a2.74,2.74,0,0,0,.47,1.53L850,119.52l-2.68-4.28c3.19-3.67,6.38-5.69,11.23-5.69,5.14,0,7.45,3.5,7.45,9.26,0,3.28-.56,6.63-.56,9.91,0,2.74.56,3.51,1.48,3.51a2.2,2.2,0,0,0,1.85-1Zm-14.8-.22c2.22,0,4.62-1.43,4.62-9.48-3.42.93-7.21,1.81-7.21,6.19C852.27,131.68,853,132.78,854.86,132.78Z"/><path class="cls-4" d="M898.69,136.29a58,58,0,0,0-6.15-.44,61.23,61.23,0,0,0-6.24.44v-2.74c1.75-.22,2.59-1.21,2.59-3.29v-9.21c0-4.82-1.67-6.46-4-6.46-1.25,0-3.79,1.91-3.79,3v11.62c0,3.29.92,4.06,2.68,4.39v2.74a59.52,59.52,0,0,0-6.15-.44,60.62,60.62,0,0,0-6.29.44v-2.74c2.18-.11,3-1.43,3-4.28V118.09c0-2.3-1-3.18-3-3.28v-2.74a16.82,16.82,0,0,0,8-2.52h1.94a13,13,0,0,0-.18,1.91v2.14c2-2.19,4.25-4,7.54-4,4.11,0,7,3.39,7,9.2v10.74c0,2.63.92,3.95,3.05,4.06Z"/></g></g></svg>